<?xml version="1.0" encoding="utf-8"?>
<svg version="1.1" xmlns="http://www.w3.org/2000/svg" xmlns:xlink="http://www.w3.org/1999/xlink" x="0px" y="0px"
	 viewBox="0 0 335 42.1" style="enable-background:new 0 0 335 42.1;" xml:space="preserve">
<style type="text/css">
	.st0{fill:#FFFFFF;}
</style>
<g>
	<path class="st0" d="M66.4,20.7c-0.4,0-0.7-0.1-0.8-0.1c-0.2-0.1-0.3-0.3-0.3-0.5c0-0.2,0.1-0.4,0.2-0.6l0.3-0.8h2.7l0.4,1
		c0.1,0.2,0.2,0.4,0.2,0.4c0,0.1,0,0.1,0,0.2c0,0.1,0,0.2-0.1,0.3c-0.1,0.1-0.3,0.1-0.6,0.1h-0.2v0.2H72v-0.2
		c-0.2,0-0.4-0.1-0.5-0.2c-0.2-0.2-0.4-0.5-0.7-1.1L68,13.1h-0.1l-2.8,6.1c-0.3,0.6-0.5,1-0.7,1.2c-0.2,0.2-0.4,0.3-0.7,0.3v0.2h2.6
		V20.7z M67.3,15.7l1.1,2.7h-2.3L67.3,15.7z"/>
	<path class="st0" d="M72.2,16.8v2.1c0,0.6,0,1,0.1,1.3c0.1,0.2,0.2,0.5,0.5,0.7c0.2,0.2,0.5,0.3,0.8,0.3c0.3,0,0.6-0.1,0.9-0.2
		c0.3-0.1,0.5-0.4,0.8-0.7v0.7h2.2v-0.2c-0.2,0-0.4-0.1-0.5-0.2c-0.1-0.1-0.1-0.4-0.1-0.8v-4.2h-2.2v0.2c0.2,0,0.4,0.1,0.5,0.2
		c0.1,0.1,0.1,0.3,0.1,0.7v2.8c-0.2,0.3-0.4,0.5-0.5,0.6c-0.1,0.1-0.2,0.1-0.4,0.1c-0.1,0-0.2,0-0.3-0.1c-0.1-0.1-0.1-0.1-0.2-0.3
		c0-0.1-0.1-0.4-0.1-0.7v-3.6h-2.2v0.2c0.2,0,0.4,0.1,0.5,0.2C72.1,16.1,72.2,16.4,72.2,16.8z"/>
	<path class="st0" d="M79.3,19c0.4,0.3,0.6,0.5,0.8,0.6c0.1,0.1,0.2,0.3,0.2,0.5c0,0.2-0.1,0.3-0.2,0.4c-0.1,0.1-0.3,0.2-0.4,0.2
		c-0.3,0-0.5-0.1-0.8-0.4c-0.3-0.2-0.5-0.6-0.7-1.1h-0.2l0.1,1.9h0.2c0.1-0.2,0.2-0.3,0.3-0.3c0,0,0.1,0,0.2,0.1
		c0.4,0.2,0.8,0.2,1,0.2c0.3,0,0.6-0.1,0.9-0.2c0.3-0.2,0.5-0.4,0.6-0.7c0.1-0.3,0.2-0.6,0.2-0.9c0-0.3-0.1-0.6-0.3-0.9
		c-0.2-0.3-0.5-0.6-1.1-1c-0.6-0.4-0.9-0.6-1-0.8c-0.1-0.1-0.1-0.2-0.1-0.3c0-0.1,0.1-0.3,0.2-0.4c0.1-0.1,0.2-0.2,0.4-0.2
		c0.2,0,0.5,0.1,0.7,0.3c0.2,0.2,0.5,0.6,0.7,1.1h0.2L81,15.5h-0.2c-0.1,0.1-0.2,0.2-0.2,0.2c0,0-0.1,0-0.2,0c-0.1,0-0.1,0-0.3-0.1
		c-0.3-0.1-0.5-0.2-0.8-0.2c-0.5,0-0.9,0.2-1.2,0.5c-0.3,0.3-0.4,0.7-0.4,1.1c0,0.4,0.1,0.7,0.4,1C78.3,18.3,78.7,18.6,79.3,19z"/>
	<path class="st0" d="M82.3,19c0,0.6,0,0.9,0.1,1c0.1,0.2,0.2,0.4,0.4,0.6c0.2,0.2,0.5,0.3,0.9,0.3c0.7,0,1.2-0.4,1.5-1.1l-0.2-0.1
		c-0.2,0.4-0.5,0.6-0.7,0.6c-0.1,0-0.1,0-0.2-0.1c-0.1-0.1-0.1-0.1-0.2-0.2c0-0.1,0-0.3,0-0.6v-3.3h1.3v-0.6h-1.3v-1.9h-0.2
		c-0.2,0.5-0.5,0.9-0.9,1.2c-0.3,0.4-0.7,0.7-1.2,1.1v0.2h0.7V19z"/>
	<path class="st0" d="M88.4,20.7c-0.2,0-0.4,0-0.5-0.1c-0.1,0-0.2-0.1-0.2-0.2c0-0.1,0-0.2,0-0.4l0-0.3v-1.2c0-0.4,0.1-0.8,0.2-1.2
		c0.1-0.2,0.2-0.4,0.4-0.6c0.1-0.1,0.2-0.1,0.3-0.1c0,0,0.1,0,0.1,0c0,0,0.1,0.1,0.3,0.2c0.1,0.1,0.3,0.2,0.5,0.2
		c0.2,0,0.3-0.1,0.4-0.2c0.1-0.1,0.2-0.3,0.2-0.6c0-0.2-0.1-0.4-0.2-0.5c-0.1-0.1-0.3-0.2-0.5-0.2c-0.2,0-0.5,0.1-0.8,0.3
		c-0.3,0.2-0.6,0.5-0.9,1.1v-1.2h-2.2v0.2c0.2,0,0.3,0.1,0.4,0.1c0.1,0.1,0.1,0.1,0.2,0.2c0,0.1,0,0.3,0,0.6v2.9
		c0,0.5,0,0.7-0.1,0.9c-0.1,0.1-0.2,0.2-0.5,0.2v0.2h2.9V20.7z"/>
	<path class="st0" d="M90.7,18.9c-0.3,0.3-0.5,0.7-0.5,1.1c0,0.3,0.1,0.6,0.3,0.8c0.2,0.2,0.5,0.3,0.8,0.3c0.5,0,1.1-0.3,1.7-0.9
		c0,0.3,0.1,0.5,0.3,0.6c0.2,0.1,0.4,0.2,0.7,0.2c0.3,0,0.5-0.1,0.7-0.2c0.2-0.1,0.4-0.3,0.6-0.6l-0.2-0.1c-0.1,0.1-0.2,0.2-0.3,0.2
		c0,0-0.1,0-0.1,0c0,0-0.1-0.1-0.1-0.1c0-0.1,0-0.2,0-0.5v-2.1c0-0.6,0-0.9-0.1-1.1c-0.1-0.3-0.3-0.5-0.6-0.7
		c-0.3-0.2-0.7-0.3-1.2-0.3c-0.4,0-0.8,0.1-1.2,0.2c-0.4,0.1-0.7,0.3-0.9,0.6c-0.2,0.2-0.3,0.5-0.3,0.8c0,0.2,0.1,0.4,0.2,0.5
		c0.2,0.1,0.4,0.2,0.6,0.2c0.2,0,0.4-0.1,0.5-0.2c0.1-0.1,0.2-0.3,0.2-0.5c0-0.2-0.1-0.3-0.2-0.5c-0.1-0.1-0.2-0.2-0.2-0.3
		c0-0.1,0.1-0.2,0.2-0.2c0.2-0.1,0.4-0.2,0.6-0.2c0.2,0,0.3,0,0.4,0.1c0.1,0.1,0.2,0.2,0.2,0.3c0,0.1,0.1,0.4,0.1,0.8v0.5
		C91.9,18.1,91.1,18.5,90.7,18.9z M93,19.7c-0.2,0.2-0.5,0.3-0.7,0.3c-0.2,0-0.3-0.1-0.4-0.2c-0.1-0.1-0.2-0.3-0.2-0.5
		c0-0.2,0.1-0.4,0.2-0.6c0.2-0.3,0.6-0.6,1-0.9V19.7z"/>
	<path class="st0" d="M98.3,20.7c-0.3,0-0.4-0.1-0.5-0.2c-0.1-0.1-0.1-0.3-0.1-0.7v-6.6h-2.2v0.2c0.3,0,0.4,0.1,0.5,0.2
		c0.1,0.1,0.1,0.3,0.1,0.7v5.5c0,0.4,0,0.6-0.1,0.7c-0.1,0.1-0.3,0.2-0.5,0.2v0.2h2.9V20.7z"/>
	<path class="st0" d="M101.5,20.7c-0.3,0-0.4-0.1-0.5-0.2c-0.1-0.1-0.1-0.3-0.1-0.7v-4.2h-2.2v0.2c0.3,0,0.4,0.1,0.5,0.2
		c0.1,0.1,0.1,0.3,0.1,0.7v3.1c0,0.4,0,0.6-0.1,0.7c-0.1,0.1-0.3,0.2-0.5,0.2v0.2h2.9V20.7z"/>
	<path class="st0" d="M100.1,14.8c0.2,0,0.4-0.1,0.6-0.3c0.2-0.2,0.3-0.4,0.3-0.6c0-0.2-0.1-0.4-0.3-0.6c-0.2-0.2-0.4-0.3-0.6-0.3
		c-0.2,0-0.4,0.1-0.6,0.3c-0.2,0.2-0.3,0.4-0.3,0.6c0,0.2,0.1,0.4,0.3,0.6C99.6,14.7,99.8,14.8,100.1,14.8z"/>
	<path class="st0" d="M102.3,18.9c-0.3,0.3-0.5,0.7-0.5,1.1c0,0.3,0.1,0.6,0.3,0.8c0.2,0.2,0.5,0.3,0.8,0.3c0.5,0,1.1-0.3,1.7-0.9
		c0,0.3,0.1,0.5,0.3,0.6c0.2,0.1,0.4,0.2,0.7,0.2c0.3,0,0.5-0.1,0.7-0.2c0.2-0.1,0.4-0.3,0.6-0.6l-0.2-0.1c-0.1,0.1-0.2,0.2-0.3,0.2
		c0,0-0.1,0-0.1,0c0,0-0.1-0.1-0.1-0.1c0-0.1,0-0.2,0-0.5v-2.1c0-0.6,0-0.9-0.1-1.1c-0.1-0.3-0.3-0.5-0.6-0.7
		c-0.3-0.2-0.7-0.3-1.2-0.3c-0.4,0-0.8,0.1-1.2,0.2c-0.4,0.1-0.7,0.3-0.9,0.6c-0.2,0.2-0.3,0.5-0.3,0.8c0,0.2,0.1,0.4,0.2,0.5
		c0.2,0.1,0.4,0.2,0.6,0.2c0.2,0,0.4-0.1,0.5-0.2c0.1-0.1,0.2-0.3,0.2-0.5c0-0.2-0.1-0.3-0.2-0.5c-0.1-0.1-0.2-0.2-0.2-0.3
		c0-0.1,0-0.2,0.2-0.2c0.2-0.1,0.4-0.2,0.6-0.2c0.2,0,0.3,0,0.4,0.1c0.1,0.1,0.2,0.2,0.2,0.3c0,0.1,0.1,0.4,0.1,0.8v0.5
		C103.4,18.1,102.7,18.5,102.3,18.9z M104.6,19.7c-0.2,0.2-0.5,0.3-0.7,0.3c-0.2,0-0.3-0.1-0.4-0.2c-0.1-0.1-0.2-0.3-0.2-0.5
		c0-0.2,0.1-0.4,0.2-0.6c0.2-0.3,0.6-0.6,1-0.9V19.7z"/>
	<path class="st0" d="M109.7,20.7c-0.2,0-0.3-0.1-0.4-0.2c-0.1-0.1-0.1-0.4-0.1-0.8v-2.8c0.3-0.5,0.6-0.7,0.9-0.7
		c0.1,0,0.2,0,0.3,0.1c0.1,0.1,0.1,0.1,0.2,0.3c0,0.1,0.1,0.4,0.1,0.8v2.4c0,0.4,0,0.6-0.1,0.7c-0.1,0.1-0.2,0.2-0.4,0.3v0.2h2.7
		v-0.2c-0.2,0-0.4-0.1-0.5-0.2c-0.1-0.1-0.1-0.4-0.1-0.8v-2.1c0-0.6,0-1-0.1-1.2c-0.1-0.3-0.2-0.5-0.5-0.7c-0.2-0.2-0.5-0.3-0.9-0.3
		c-0.3,0-0.6,0.1-0.8,0.2c-0.2,0.1-0.5,0.3-0.8,0.6v-0.7H107v0.2c0.2,0,0.4,0.1,0.5,0.2c0.1,0.1,0.1,0.3,0.1,0.7v3
		c0,0.4,0,0.7-0.1,0.7c-0.1,0.1-0.3,0.2-0.5,0.2v0.2h2.7V20.7z"/>
	<path class="st0" d="M116.9,20c0.4,0.3,0.8,0.6,1.3,0.8c0.5,0.2,1.1,0.3,1.8,0.3c0.6,0,1.1-0.1,1.7-0.2c0.5-0.1,1-0.3,1.5-0.5v-1.6
		c0-0.3,0-0.5,0.1-0.5c0.1-0.1,0.1-0.2,0.3-0.3c0.1-0.1,0.3-0.1,0.6-0.1v-0.2h-3.7v0.2h0.2c0.2,0,0.3,0,0.5,0.1
		c0.1,0.1,0.2,0.2,0.3,0.2c0,0.1,0.1,0.3,0.1,0.6v1.6c-0.2,0.1-0.4,0.1-0.6,0.2c-0.2,0-0.4,0.1-0.6,0.1c-0.5,0-1-0.1-1.4-0.4
		c-0.4-0.3-0.7-0.7-0.8-1.2c-0.2-0.6-0.3-1.2-0.3-1.9c0-0.6,0.1-1.2,0.2-1.8c0.2-0.6,0.4-1,0.8-1.4c0.4-0.3,0.9-0.5,1.4-0.5
		c0.6,0,1.2,0.2,1.7,0.6c0.5,0.4,0.9,1,1.1,1.7h0.2V13H123c-0.1,0.2-0.2,0.4-0.2,0.4c-0.1,0.1-0.2,0.1-0.3,0.1
		c-0.1,0-0.3-0.1-0.7-0.2c-0.4-0.1-0.6-0.2-0.8-0.3c-0.3-0.1-0.7-0.1-1-0.1c-1.2,0-2.3,0.4-3.1,1.2c-0.8,0.8-1.2,1.8-1.2,2.9
		c0,0.6,0.1,1.2,0.4,1.8C116.3,19.3,116.6,19.7,116.9,20z"/>
	<path class="st0" d="M127,21.1c0.8,0,1.5-0.3,1.9-0.9c0.4-0.5,0.6-1.1,0.6-1.9c0-0.5-0.1-1-0.3-1.4c-0.2-0.4-0.5-0.8-0.9-1
		c-0.4-0.2-0.8-0.4-1.3-0.4c-0.8,0-1.4,0.3-1.8,0.9c-0.4,0.6-0.7,1.2-0.7,2c0,0.7,0.2,1.4,0.6,1.9C125.5,20.8,126.2,21.1,127,21.1z
		 M126.2,16.9c0-0.4,0.1-0.7,0.3-0.9c0.1-0.1,0.3-0.2,0.5-0.2c0.2,0,0.3,0,0.4,0.1c0.1,0.1,0.2,0.3,0.3,0.5c0.1,0.2,0.1,0.7,0.1,1.3
		c0,1.1,0,1.8-0.1,2.2c0,0.2-0.1,0.4-0.3,0.5c-0.1,0.1-0.3,0.1-0.4,0.1c-0.2,0-0.3-0.1-0.5-0.2c-0.1-0.1-0.2-0.3-0.3-0.6
		c-0.1-0.4-0.1-0.7-0.1-1.1C126.1,18,126.1,17.4,126.2,16.9z"/>
	<path class="st0" d="M130.2,17l1.8,4.1h0.3l1.8-4.2c0.2-0.5,0.4-0.8,0.5-0.9c0.1-0.1,0.2-0.2,0.4-0.2v-0.2h-1.7v0.2
		c0.2,0,0.4,0,0.4,0.1c0.1,0.1,0.1,0.2,0.1,0.3c0,0.2-0.1,0.6-0.3,1l-0.7,1.7l-0.9-2c-0.2-0.4-0.3-0.6-0.3-0.8c0-0.1,0-0.2,0.1-0.3
		c0.1-0.1,0.2-0.1,0.4-0.1v-0.2h-2.8v0.2c0.2,0,0.3,0.1,0.4,0.2C129.8,16.2,129.9,16.5,130.2,17z"/>
	<path class="st0" d="M135.1,20.2c0.4,0.6,1,0.9,1.8,0.9c0.5,0,0.9-0.1,1.2-0.4c0.4-0.2,0.7-0.7,1-1.2l-0.2-0.1
		c-0.2,0.3-0.4,0.6-0.6,0.7c-0.2,0.1-0.4,0.2-0.6,0.2c-0.4,0-0.7-0.2-0.9-0.5c-0.3-0.4-0.5-1-0.6-1.7h2.9c0-0.9-0.2-1.5-0.6-2
		c-0.4-0.4-0.9-0.7-1.4-0.7c-0.6,0-1.2,0.3-1.7,0.8c-0.5,0.5-0.7,1.2-0.7,2.1C134.6,19.1,134.8,19.7,135.1,20.2z M136.1,17.5
		c0-0.6,0.1-1,0.3-1.4c0.1-0.2,0.3-0.3,0.5-0.3c0.1,0,0.2,0,0.3,0.1c0.1,0.1,0.2,0.3,0.3,0.5c0.1,0.2,0.1,0.6,0.1,1.3h-1.5V17.5z"/>
	<path class="st0" d="M142.3,20.7c-0.2,0-0.4,0-0.5-0.1c-0.1,0-0.2-0.1-0.2-0.2c0-0.1,0-0.2,0-0.4l0-0.3v-1.2c0-0.4,0.1-0.8,0.2-1.2
		c0.1-0.2,0.2-0.4,0.4-0.6c0.1-0.1,0.2-0.1,0.3-0.1c0,0,0.1,0,0.1,0c0,0,0.1,0.1,0.3,0.2c0.1,0.1,0.3,0.2,0.5,0.2
		c0.2,0,0.3-0.1,0.4-0.2c0.1-0.1,0.2-0.3,0.2-0.6c0-0.2-0.1-0.4-0.2-0.5c-0.1-0.1-0.3-0.2-0.5-0.2c-0.2,0-0.5,0.1-0.8,0.3
		c-0.3,0.2-0.6,0.5-0.9,1.1v-1.2h-2.2v0.2c0.2,0,0.3,0.1,0.4,0.1c0.1,0.1,0.1,0.1,0.2,0.2c0,0.1,0,0.3,0,0.6v2.9
		c0,0.5,0,0.7-0.1,0.9c-0.1,0.1-0.2,0.2-0.5,0.2v0.2h2.9V20.7z"/>
	<path class="st0" d="M147,20.7c-0.2,0-0.3-0.1-0.4-0.2c-0.1-0.1-0.1-0.4-0.1-0.8v-2.8c0.3-0.5,0.6-0.7,0.9-0.7c0.1,0,0.2,0,0.3,0.1
		c0.1,0.1,0.1,0.1,0.2,0.3c0,0.1,0,0.4,0,0.8v2.4c0,0.4,0,0.6-0.1,0.7c-0.1,0.1-0.2,0.2-0.4,0.3v0.2h2.7v-0.2
		c-0.2,0-0.4-0.1-0.5-0.2c-0.1-0.1-0.1-0.4-0.1-0.8v-2.1c0-0.6,0-1-0.1-1.2c-0.1-0.3-0.2-0.5-0.5-0.7c-0.2-0.2-0.5-0.3-0.9-0.3
		c-0.3,0-0.6,0.1-0.8,0.2c-0.3,0.1-0.5,0.3-0.8,0.6v-0.7h-2.2v0.2c0.2,0,0.4,0.1,0.5,0.2c0.1,0.1,0.1,0.3,0.1,0.7v3
		c0,0.4,0,0.7-0.1,0.7c-0.1,0.1-0.3,0.2-0.5,0.2v0.2h2.7V20.7z"/>
	<path class="st0" d="M153.2,20.7c-0.2,0-0.4-0.1-0.5-0.2c-0.1-0.1-0.1-0.4-0.1-0.7v-2.9c0.2-0.3,0.4-0.5,0.6-0.6
		c0.1-0.1,0.3-0.1,0.4-0.1c0.1,0,0.2,0,0.3,0.1c0.1,0.1,0.2,0.2,0.2,0.3c0,0.1,0.1,0.4,0.1,0.9v2.3c0,0.3,0,0.5,0,0.6
		c0,0.1-0.1,0.2-0.2,0.2c-0.1,0.1-0.2,0.1-0.3,0.1v0.2h2.8v-0.2c-0.2,0-0.4-0.1-0.5-0.2c-0.1-0.1-0.1-0.3-0.1-0.7v-2.9
		c0.2-0.2,0.3-0.4,0.5-0.5c0.2-0.1,0.3-0.2,0.5-0.2c0.1,0,0.2,0,0.3,0.1c0.1,0.1,0.1,0.2,0.2,0.3c0,0.1,0.1,0.4,0.1,0.9v2.3
		c0,0.4,0,0.6-0.1,0.7c-0.1,0.1-0.3,0.2-0.5,0.3v0.2h2.7v-0.2c-0.2,0-0.4-0.1-0.5-0.2c-0.1-0.1-0.1-0.4-0.1-0.8v-2.2
		c0-0.6,0-1-0.1-1.2c-0.1-0.3-0.2-0.5-0.5-0.6c-0.2-0.2-0.5-0.3-0.9-0.3c-0.3,0-0.6,0.1-0.9,0.2c-0.3,0.2-0.6,0.4-0.9,0.7
		c-0.1-0.3-0.3-0.6-0.5-0.7c-0.2-0.2-0.5-0.2-0.9-0.2c-0.3,0-0.6,0.1-0.8,0.2c-0.2,0.1-0.5,0.3-0.8,0.7v-0.7h-2.2v0.2
		c0.2,0,0.4,0.1,0.5,0.2c0.1,0.1,0.1,0.3,0.1,0.7v3c0,0.4,0,0.7-0.1,0.7c-0.1,0.1-0.3,0.2-0.5,0.2v0.2h2.7V20.7z"/>
	<path class="st0" d="M162,21.1c0.5,0,0.9-0.1,1.2-0.4c0.3-0.2,0.7-0.7,1-1.2l-0.2-0.1c-0.2,0.3-0.4,0.6-0.6,0.7
		c-0.2,0.1-0.4,0.2-0.6,0.2c-0.4,0-0.7-0.2-0.9-0.5c-0.3-0.4-0.5-1-0.6-1.7h2.9c0-0.9-0.2-1.5-0.6-2c-0.4-0.4-0.9-0.7-1.4-0.7
		c-0.6,0-1.2,0.3-1.7,0.8c-0.5,0.5-0.7,1.2-0.7,2.1c0,0.7,0.2,1.3,0.5,1.8C160.6,20.8,161.2,21.1,162,21.1z M161.2,17.5
		c0-0.6,0.1-1,0.3-1.4c0.1-0.2,0.3-0.3,0.5-0.3c0.1,0,0.2,0,0.3,0.1c0.1,0.1,0.2,0.3,0.3,0.5c0.1,0.2,0.1,0.6,0.1,1.3h-1.5V17.5z"/>
	<path class="st0" d="M167.1,20.7c-0.2,0-0.3-0.1-0.4-0.2c-0.1-0.1-0.1-0.4-0.1-0.8v-2.8c0.3-0.5,0.6-0.7,0.9-0.7
		c0.1,0,0.2,0,0.3,0.1c0.1,0.1,0.1,0.1,0.2,0.3c0,0.1,0.1,0.4,0.1,0.8v2.4c0,0.4,0,0.6-0.1,0.7c-0.1,0.1-0.2,0.2-0.4,0.3v0.2h2.7
		v-0.2c-0.2,0-0.4-0.1-0.5-0.2c-0.1-0.1-0.1-0.4-0.1-0.8v-2.1c0-0.6,0-1-0.1-1.2c-0.1-0.3-0.2-0.5-0.5-0.7c-0.2-0.2-0.5-0.3-0.9-0.3
		c-0.3,0-0.6,0.1-0.8,0.2c-0.3,0.1-0.5,0.3-0.8,0.6v-0.7h-2.2v0.2c0.2,0,0.4,0.1,0.5,0.2c0.1,0.1,0.1,0.3,0.1,0.7v3
		c0,0.4,0,0.7-0.1,0.7c-0.1,0.1-0.3,0.2-0.5,0.2v0.2h2.7V20.7z"/>
	<path class="st0" d="M170.8,19c0,0.6,0,0.9,0.1,1c0.1,0.2,0.2,0.4,0.4,0.6c0.2,0.2,0.5,0.3,0.9,0.3c0.7,0,1.2-0.4,1.5-1.1l-0.2-0.1
		c-0.2,0.4-0.5,0.6-0.7,0.6c-0.1,0-0.1,0-0.2-0.1c-0.1-0.1-0.1-0.1-0.2-0.2c0-0.1,0-0.3,0-0.6v-3.3h1.3v-0.6h-1.3v-1.9h-0.2
		c-0.3,0.5-0.5,0.9-0.9,1.2c-0.3,0.4-0.7,0.7-1.2,1.1v0.2h0.7V19z"/>
	<path class="st0" d="M22.5,22.9c0-0.2-0.1-0.3-0.3-0.3c-0.2,0-0.3,0.1-0.3,0.3c0,0.2,0.1,0.3,0.3,0.3
		C22.4,23.2,22.5,23.1,22.5,22.9z"/>
	<path class="st0" d="M25.1,11.4L25.1,11.4L25.1,11.4l0,8.1c0,0.8,0.3,1.5,0.8,1.7l3.9,2.3c0.1,0.1,0.2,0.2,0.4,0.2
		c0.1,0,0.2,0,0.3-0.1l3.9-2.3c0.5-0.2,0.8-0.9,0.8-1.7l0-8.1h0v0H25.1z M27.6,11.7h0.9v2.1h-0.9V11.7z M27.8,14.5l0.1-0.1l-0.1-0.1
		l0.2,0l0.1-0.2l0.1,0.2l0.2,0l-0.1,0.1l0.1,0.1l-0.2,0v0.2l-0.1-0.1L28,14.7v-0.2L27.8,14.5z M26.8,12.2l0.2,0l0.1-0.2l0.1,0.2
		l0.2,0l-0.1,0.1l0.1,0.1l-0.2,0v0.2L27,12.6l-0.1,0.1v-0.2l-0.2,0l0.1-0.1L26.8,12.2z M26.7,14.1c0.3,0,0.2,0.3,0.3,0.3
		c0,0,0-0.3,0.2-0.3c0.3,0,0.6,0.7,0.3,0.7c-0.1,0,0-0.1,0-0.1c0-0.1-0.1-0.1-0.1-0.1c-0.1,0-0.1,0.2-0.2,0.2c-0.1,0-0.1,0-0.1-0.1
		c0-0.1,0.1-0.1,0.2-0.1c-0.6,0-0.7,0.3-0.8,0.3c-0.2,0,0.1-0.3,0.2-0.4c-0.1,0-0.2-0.2-0.4-0.3c0.1-0.1,0.1-0.1,0.2,0
		C26.5,14.1,26.6,14.1,26.7,14.1z M26.7,16.5l0.1-0.1l-0.1-0.1l0.2,0l0.1-0.2l0.1,0.2l0.2,0l-0.1,0.1l0.1,0.1l-0.2,0v0.2L27,16.6
		l-0.1,0.1v-0.2L26.7,16.5z M25.4,11.7h1.1v2.1h-1.1V11.7z M25.5,14.5l0.1-0.1l-0.1-0.1l0.2,0l0.1-0.2l0.1,0.2l0.2,0L26,14.4
		l0.1,0.1l-0.2,0v0.2l-0.1-0.1l-0.1,0.1v-0.2L25.5,14.5z M25.4,15.1h1.1v2h-1.1V15.1z M28.4,22.4L26,21c-0.4-0.3-0.6-0.8-0.7-1.3
		v-2.3h3V22.4z M28.4,17.1h-0.9v-2h0.9V17.1z M31.5,22.6l-1.1,0.7h0c-0.1,0.1-0.2,0.1-0.3,0.1c-0.1,0-0.2,0-0.3-0.1l-1.1-0.7v-5.2
		h2.8V22.6z M31.5,17.1h-2.8v-5.4h2.8V17.1z M34.9,19.7c-0.1,0.6-0.3,1.1-0.7,1.3l-2.4,1.4v-5h3V19.7z M34.9,17.1h-3v-5.4h3V17.1z"
		/>
	<path class="st0" d="M25.5,18.7c0,0,0,0.1,0.1,0.1c0,0-0.1,0.1-0.1,0.3c0,0.6,0.4,0.9,0.7,0.9c0.2,0,0.2-0.1,0.2-0.2
		c0,0.1,0.1-0.1,0.1,0.1c0,0.2-0.2,0.1-0.2,0.3c0,0.2,0.3,0,0.3,0.2c0,0.3,0,0.3,0,0.4c0,0.1,0.3-0.1,0.3-0.1c0.1,0,0.1,0.3,0.2,0.3
		c0.1,0,0.1-0.2,0.2-0.3c0,0,0.3,0.2,0.3,0.1c0-0.3-0.1-0.2-0.1-0.4c0-0.2,0.4-0.2,0.3-0.2c-0.1-0.1-0.1,0-0.1-0.2
		c0,0-0.3-0.5,0.1-0.2c0.4,0.3,0.5-0.6,0.4-0.7c0,0-0.2,0-0.3,0.1c0-0.1,0.2-0.3,0.3-0.4c0-0.1-0.2,0-0.4,0.1
		c0.6-0.8,0.2-0.5-0.1-0.4c0.5-0.5,0.4-0.5,0-0.4c0.3-0.2,0.4-0.5,0.3-0.6c-0.3,0.4-0.5,0.3-0.5,0.7c0,0.2-0.1,0.6-0.2,0.7
		c-0.1,0.2,0-0.6-0.4-0.6c-0.1,0-0.4,0-0.5,0.1c0.1,0,0.2,0.2,0.2,0.3c0,0.1,0.1,0.3-0.1,0.3c-0.1,0-0.3-0.3-0.3-0.4
		c0-0.1,0-0.1,0-0.3c0-0.3-0.5-0.8-0.7-0.8c0,0.2,0.3,0.3,0.3,0.6c-0.1,0-0.3-0.2-0.3-0.1c0,0.1,0.2,0.2,0.2,0.3
		c0,0.1-0.2,0-0.2,0.1c0,0.1,0.1,0.1,0.1,0.2C25.6,18.7,25.5,18.7,25.5,18.7z"/>
	<path class="st0" d="M39,21.3c0.2,0,0.3-0.1,0.3-0.3c0-0.2-0.1-0.3-0.3-0.3c-0.2,0-0.3,0.1-0.3,0.3C38.6,21.2,38.8,21.3,39,21.3z"
		/>
	<path class="st0" d="M37.3,21.8c0,0.2,0.1,0.3,0.3,0.3c0.2,0,0.3-0.1,0.3-0.3c0-0.2-0.1-0.3-0.3-0.3C37.5,21.6,37.3,21.7,37.3,21.8
		z"/>
	<path class="st0" d="M21.8,23.4c-0.2,0-0.3,0.1-0.3,0.3c0,0.2,0.1,0.3,0.3,0.3c0.2,0,0.3-0.1,0.3-0.3C22.1,23.5,22,23.4,21.8,23.4z
		"/>
	<path class="st0" d="M22.8,24.1c0.2,0,0.3-0.1,0.3-0.3c0-0.2-0.1-0.3-0.3-0.3c-0.2,0-0.3,0.1-0.3,0.3
		C22.5,23.9,22.6,24.1,22.8,24.1z"/>
	<path class="st0" d="M51.6,12.4c0.4-0.7,0.2-1.6-0.2-2.2c-0.1-0.1,0-0.4-0.3-0.4c-0.3,0.7,0,1.6,0.3,2.2
		C51.4,12.1,51.4,12.4,51.6,12.4z"/>
	<path class="st0" d="M9.3,12.3c0.1,0,0.1,0.2,0.2,0.1c-0.1-0.4-0.1-1,0-1.4c-0.1-0.4-0.2-0.7-0.5-0.9c-0.1,0-0.1,0-0.2,0
		C9,10.9,8.6,11.8,9.3,12.3z"/>
	<path class="st0" d="M52.6,11.5c0.1-0.1,0.3-0.3,0.2-0.5c-0.1-0.2-0.3-0.2-0.5-0.2c-0.2,0.1-0.3,0.3-0.2,0.5
		C52.3,11.5,52.5,11.6,52.6,11.5z"/>
	<path class="st0" d="M8.2,12.2c0.1-0.1,0.2-0.2,0.2-0.4c-0.1-0.1-0.2-0.2-0.3-0.2c-0.1,0-0.3,0-0.3,0.2c-0.1,0.1,0,0.3,0.1,0.4
		C7.9,12.2,8.1,12.2,8.2,12.2z"/>
	<path class="st0" d="M53.1,12.6c0.2,0.1,0.4,0,0.5-0.2c0-0.1,0-0.2,0-0.3c-0.1-0.1-0.2-0.2-0.4-0.2c-0.1,0.1-0.3,0.2-0.3,0.3
		C52.9,12.4,53,12.5,53.1,12.6z"/>
	<path class="st0" d="M52.2,12.7c0.2,0.1,0.3-0.1,0.4-0.2c0-0.1,0.1-0.3,0-0.4c-0.1-0.1-0.2-0.1-0.3-0.1C52,12.1,52,12.3,52,12.5
		C52,12.6,52.1,12.6,52.2,12.7z"/>
	<path class="st0" d="M51.1,12.9c0.2,0,0.2-0.3,0.2-0.5c-0.1-0.1-0.2-0.2-0.3-0.2c-0.2,0.1-0.3,0.2-0.3,0.4
		C50.7,12.8,50.8,13,51.1,12.9z"/>
	<path class="st0" d="M10.1,12.9c0.1-0.1,0.3-0.2,0.2-0.4c-0.1-0.2-0.3-0.3-0.5-0.2c0,0.1-0.2,0.2-0.1,0.3
		C9.8,12.8,10,12.9,10.1,12.9z"/>
	<path class="st0" d="M9.1,12.9c0.1-0.1,0.2-0.2,0.2-0.3c-0.1-0.1-0.2-0.3-0.4-0.2c-0.1,0.1-0.2,0.2-0.2,0.4
		C8.8,12.8,8.9,13,9.1,12.9z"/>
	<path class="st0" d="M47.2,14.9c0.2-0.2,0.1-0.7,0.2-1c0-0.5-0.2-0.9-0.3-1.3c-0.1-0.1-0.1-0.3-0.2-0.2c-0.1,0.6-0.4,1.3-0.1,1.9
		C46.9,14.5,46.9,14.8,47.2,14.9z"/>
	<path class="st0" d="M7.8,13c0.1,0.1,0.2,0.3,0.4,0.2c0.1-0.1,0.3-0.2,0.2-0.4c-0.1-0.2-0.3-0.2-0.4-0.2C7.9,12.7,7.8,12.9,7.8,13z
		"/>
	<path class="st0" d="M49.9,15.1c0.2-0.6,0.1-1.2-0.1-1.7c-0.2-0.1-0.3-0.3-0.3-0.5c-0.1-0.1-0.1-0.2-0.2-0.1
		c-0.1,0.3-0.2,0.6-0.2,1c0.1,0.5,0.5,1,0.7,1.4L49.9,15.1z"/>
	<path class="st0" d="M51.5,12.8c-0.1,0.1-0.2,0.2-0.2,0.4c0.1,0.2,0.2,0.2,0.4,0.2c0.2-0.1,0.2-0.2,0.3-0.4
		C51.9,12.9,51.7,12.7,51.5,12.8z"/>
	<path class="st0" d="M9,13.9c0.1,0,0.3-0.2,0.3-0.3c0-0.2-0.2-0.2-0.3-0.3c-0.1,0-0.2,0-0.3,0.1c-0.1,0.1-0.1,0.3,0,0.4
		C8.8,13.9,8.9,14,9,13.9z"/>
	<path class="st0" d="M9.9,13.9c0.1-0.1,0.3-0.2,0.2-0.4c-0.1-0.2-0.2-0.3-0.4-0.2c-0.1,0.1-0.2,0.2-0.2,0.4
		C9.6,13.8,9.7,13.9,9.9,13.9z"/>
	<path class="st0" d="M52.1,14.1c0-0.2,0.4-0.5,0.4-0.7c-0.5,0.1-1,0.4-1.4,0.9c-0.2,0.3-0.5,0.6-0.5,1c0.2,0,0.3-0.1,0.4-0.2
		C51.5,15,51.9,14.6,52.1,14.1z"/>
	<path class="st0" d="M9.5,15.2c0.1,0,0.1-0.1,0.1-0.2c-0.3-0.3-0.5-0.5-0.7-0.8c-0.2-0.3-0.6-0.4-0.9-0.6c-0.1,0-0.3-0.1-0.4,0.1
		C8.1,14.3,8.7,15.1,9.5,15.2z"/>
	<path class="st0" d="M51.1,16.5c0.2,0.1,0.4-0.1,0.6-0.1c0.7-0.4,1-1.1,1.1-1.9h-0.1C52,15.1,51.4,15.7,51.1,16.5z"/>
	<path class="st0" d="M49.1,15.5c0.2-0.1,0.3-0.2,0.3-0.5c-0.1-0.1-0.1-0.2-0.2-0.2c-0.1,0-0.2,0-0.2,0.1c-0.2,0.1-0.3,0.2-0.2,0.4
		C48.8,15.3,48.9,15.5,49.1,15.5z"/>
	<path class="st0" d="M8.9,15.9c-0.3-0.3-0.6-0.6-0.9-0.8c-0.4-0.1-0.7-0.3-1.1-0.2c-0.1,0.1-0.3,0-0.4,0.2c0.6,0.2,1,0.7,1.6,0.9
		C8.4,16,8.7,16.1,8.9,15.9z"/>
	<path class="st0" d="M12.8,15.8c0.2-0.1,0.3-0.2,0.3-0.4c0-0.2-0.2-0.2-0.3-0.2c-0.1,0.1-0.3,0.2-0.2,0.4
		C12.5,15.8,12.6,15.8,12.8,15.8z"/>
	<path class="st0" d="M11.5,15.9c0.1,0.1,0.3,0.1,0.4-0.1c0.1-0.1,0-0.3-0.1-0.4c-0.1-0.1-0.3,0-0.5,0.1
		C11.3,15.7,11.4,15.8,11.5,15.9z"/>
	<path class="st0" d="M49.2,15.7c-0.1,0-0.2,0.1-0.3,0.3c0,0.2,0.2,0.3,0.4,0.3c0.1-0.1,0.3-0.2,0.2-0.4
		C49.5,15.8,49.3,15.7,49.2,15.7z"/>
	<path class="st0" d="M50.3,16.3c0.1-0.1,0.1-0.1,0.2-0.1c0.1-0.1,0-0.2,0-0.3c-0.1-0.1-0.2-0.2-0.3-0.1c-0.1,0.1-0.3,0.2-0.3,0.4
		C50,16.3,50.1,16.4,50.3,16.3z"/>
	<path class="st0" d="M6.9,16.1c0,0.1,0.1,0.2,0.1,0.2c0.2,0.1,0.4,0,0.5-0.2c-0.1-0.2-0.2-0.3-0.4-0.3C6.9,15.8,6.9,16,6.9,16.1z"
		/>
	<path class="st0" d="M12.7,16.5c0.1,0.1,0.2,0.3,0.4,0.2c0.1-0.1,0.3-0.2,0.3-0.3c-0.1-0.2-0.3-0.3-0.5-0.3
		C12.8,16.2,12.7,16.3,12.7,16.5z"/>
	<path class="st0" d="M12,16.7c0.2,0.1,0.3-0.1,0.4-0.1c0.1-0.1,0-0.2-0.1-0.3c-0.1-0.1-0.2-0.2-0.3-0.1c-0.1,0-0.2,0.1-0.3,0.2
		C11.7,16.5,11.9,16.6,12,16.7z"/>
	<path class="st0" d="M52.5,16.7c0.1,0.1,0.2,0.1,0.4,0.1c0.1-0.1,0.2-0.2,0.2-0.3c-0.1-0.1-0.2-0.2-0.3-0.2c-0.1,0-0.2,0.1-0.3,0.2
		C52.5,16.6,52.4,16.7,52.5,16.7z"/>
	<path class="st0" d="M53.9,17c0.2,0,0.3-0.2,0.3-0.3c-0.1-0.2-0.3-0.3-0.4-0.2c-0.1,0-0.2,0.2-0.2,0.3C53.6,16.9,53.8,16.9,53.9,17
		z"/>
	<path class="st0" d="M9.2,16.7c-0.1,0.1-0.3,0-0.3,0.2c-0.1,0.1,0,0.3,0.1,0.4c0.1,0.1,0.2,0.2,0.3,0.1c0.2-0.1,0.2-0.2,0.2-0.4
		C9.4,16.8,9.3,16.7,9.2,16.7z"/>
	<path class="st0" d="M10.2,17.3c0-0.1,0.2-0.2,0.1-0.3c-0.1-0.2-0.5-0.4-0.6-0.1c-0.1,0.2,0,0.3,0.1,0.4
		C10,17.4,10.1,17.4,10.2,17.3z"/>
	<path class="st0" d="M51.5,17.1c0,0.1,0.2,0.2,0.3,0.2c0.1-0.1,0.3-0.2,0.2-0.4c-0.1-0.1-0.2-0.2-0.4-0.1
		C51.6,16.9,51.5,17,51.5,17.1z"/>
	<path class="st0" d="M52.9,17.2c-0.1,0.1,0,0.3,0.1,0.4c0.1,0.1,0.3,0.1,0.4,0.1c0.2-0.1,0.2-0.3,0.2-0.4c-0.1-0.1-0.1-0.1-0.3-0.2
		C53.1,17,53,17.1,52.9,17.2z"/>
	<path class="st0" d="M8.7,17.9c0.1-0.1,0.2-0.1,0.1-0.2c-0.1-0.2-0.4-0.4-0.5-0.1c0,0.1-0.1,0.3,0.1,0.3
		C8.4,17.9,8.6,17.9,8.7,17.9z"/>
	<path class="st0" d="M50.4,17.6c0.2,0.1,0.5,0.2,0.7,0.4c0.4,0.3,1,0.3,1.4,0.1c0,0,0.1-0.1,0-0.2c-0.6,0-1-0.5-1.5-0.6
		C50.8,17.4,50.4,17.4,50.4,17.6z"/>
	<path class="st0" d="M9.1,17.7c-0.1,0.1,0,0.3,0.1,0.4c0.1,0,0.2,0.1,0.3,0c0-0.1,0.1-0.2,0.1-0.3C9.6,17.6,9.3,17.5,9.1,17.7z"/>
	<path class="st0" d="M11,18.3c0.1-0.1,0.2-0.2,0.2-0.4c-0.1-0.2-0.4-0.3-0.6-0.1c-0.2,0.1,0,0.3,0.1,0.4
		C10.8,18.2,10.9,18.3,11,18.3z"/>
	<path class="st0" d="M29.2,21.1c0.2,0.6,1,0.3,1.5,0.4c0.3-0.1,0.5-0.3,0.7-0.6c0-0.3,0.1-0.7-0.1-0.9c-0.2-0.3-0.3-0.7-0.3-1
		c-0.1-0.5,0.5-0.1,0.5-0.4c-0.2-0.2-0.4-0.5-0.7-0.3c-0.2,0.1-0.3,0.3-0.2,0.6c0.1,0.5,0.3,0.9,0.3,1.3c-0.1-0.1-0.2-0.2-0.3-0.2
		c-0.3-0.5-1-0.3-1.4-0.7c-0.5,0,0.3,0.5-0.2,0.6c0,0.1,0.1,0.2,0.1,0.3c0,0-0.1,0-0.2,0.1C28.9,20.6,29.1,20.9,29.2,21.1z"/>
	<path class="st0" d="M12.5,18.9c0.1-0.1,0.2-0.2,0.2-0.4c-0.1-0.1-0.2-0.2-0.3-0.2c-0.1,0.1-0.2,0.2-0.2,0.4
		C12.3,18.8,12.4,19,12.5,18.9z"/>
	<path class="st0" d="M23.2,18.8c-0.2,0.7-0.5,1.6-0.1,2.3c0.2,0,0.1-0.2,0.2-0.4c0.4-0.6,0.4-1.3,0.2-2
		C23.5,18.5,23.3,18.6,23.2,18.8z"/>
	<path class="st0" d="M38.5,20.7c0.2-0.5,0.2-1.1,0-1.6c-0.1-0.1-0.1-0.5-0.3-0.4c0,0.3-0.1,0.6-0.2,0.9c0.1,0.4,0.2,0.8,0.4,1.3
		L38.5,20.7z"/>
	<path class="st0" d="M13.5,19.6c0.2-0.1,0.5-0.2,0.6-0.4c0-0.1-0.1-0.1-0.2-0.1c-0.8-0.2-1.5,0.2-2,0.8
		C12.5,20,13.1,19.9,13.5,19.6z"/>
	<path class="st0" d="M8.1,21.6c-0.4-0.6-0.6-1.3-1.2-1.7c-0.1,0-0.2,0-0.2,0.1c0,0.8,0.4,1.5,1.1,1.8c0.2,0,0.3,0.2,0.5,0.1
		C8.3,21.7,8.2,21.7,8.1,21.6z"/>
	<path class="st0" d="M37.7,20.8c0.1-0.1,0.2-0.2,0.2-0.4c-0.1-0.2-0.3-0.2-0.5-0.1c0,0.1-0.1,0.2-0.1,0.3
		C37.3,20.8,37.5,20.9,37.7,20.8z"/>
	<path class="st0" d="M51.5,22.6c0,0.1,0.1,0.1,0.2,0.1c1-0.3,1.6-1.2,2.1-2c-0.1-0.1-0.3,0-0.5,0.1C52.4,21,52.1,21.9,51.5,22.6z"
		/>
	<path class="st0" d="M5.9,21.8c0.2,0,0.1-0.2,0.2-0.2c0-0.2-0.2-0.2-0.3-0.3c-0.1,0-0.3,0.2-0.2,0.4C5.6,21.7,5.7,21.8,5.9,21.8z"
		/>
	<path class="st0" d="M8.9,21.4c0.5,0.5,1.3,0.8,2,0.5c0.1,0,0.3,0,0.2-0.2c-0.6-0.4-1.4-0.3-2.1-0.5C8.9,21.3,8.9,21.4,8.9,21.4z"
		/>
	<path class="st0" d="M6.4,21.7c0.1,0.1,0.1,0.2,0.2,0.2c0.2,0,0.3,0,0.4-0.2c0-0.1,0-0.2,0-0.3c-0.1-0.1-0.2-0.1-0.3-0.1
		C6.5,21.4,6.4,21.6,6.4,21.7z"/>
	<path class="st0" d="M23,21.5c-0.1,0-0.2,0.2-0.1,0.3c0.1,0.1,0.2,0.2,0.4,0.1c0.1-0.1,0.2-0.2,0.2-0.3
		C23.4,21.5,23.1,21.4,23,21.5z"/>
	<path class="st0" d="M53.8,21.7c0,0.1,0.1,0.2,0.1,0.3c0.1,0.1,0.2,0.1,0.3,0.1c0.1-0.1,0.3-0.2,0.2-0.4c-0.1-0.1-0.2-0.1-0.2-0.2
		C54.1,21.5,53.9,21.6,53.8,21.7z"/>
	<path class="st0" d="M55.2,22.1c0.1,0.1,0.2,0,0.3-0.1c0.1-0.1,0.2-0.2,0.1-0.4c-0.1,0-0.2-0.2-0.4-0.1c-0.1,0.1-0.3,0.2-0.3,0.3
		C55,22,55.1,22,55.2,22.1z"/>
	<path class="st0" d="M4.9,22.5c0.1,0,0.2,0,0.3-0.1c0-0.1,0.1-0.2,0.1-0.3C5.3,22,5.1,21.9,5,21.9c-0.2,0.1-0.3,0.2-0.3,0.4
		C4.7,22.3,4.8,22.5,4.9,22.5z"/>
	<path class="st0" d="M41.6,22.2c-0.1,0.2,0.1,0.3,0.2,0.4c0.2,0.1,0.3,0,0.4-0.2c0-0.1,0-0.2,0-0.2C42,21.9,41.7,22,41.6,22.2z"/>
	<path class="st0" d="M7.7,22.1c-0.2,0.1-0.1,0.2-0.1,0.4c0.1,0.1,0.1,0.2,0.3,0.2c0.2,0,0.2-0.1,0.2-0.3C8.1,22.2,7.9,22,7.7,22.1z
		"/>
	<path class="st0" d="M5.8,22.6c0.1,0.2,0.3,0.3,0.5,0.2c0.1-0.1,0.2-0.2,0.2-0.4c-0.1-0.1-0.2-0.3-0.3-0.3
		C6,22.2,5.8,22.4,5.8,22.6z"/>
	<path class="st0" d="M43.1,22.8c0.2-0.1,0.2-0.2,0.2-0.4c-0.1-0.1-0.2-0.2-0.3-0.2c-0.2,0-0.2,0.2-0.3,0.4
		C42.7,22.7,42.9,22.9,43.1,22.8z"/>
	<path class="st0" d="M6.9,22.8c0.1,0,0.2-0.1,0.2-0.1c0-0.1,0.1-0.1,0.1-0.3c-0.1-0.1-0.2-0.3-0.3-0.2c-0.1,0.1-0.2,0.2-0.2,0.3
		C6.7,22.7,6.9,22.7,6.9,22.8z"/>
	<path class="st0" d="M53.5,22.6c0-0.3-0.5-0.5-0.6-0.2c0,0.1-0.1,0.2,0,0.3c0.1,0.1,0.2,0.2,0.3,0.1C53.3,22.8,53.5,22.7,53.5,22.6
		z"/>
	<path class="st0" d="M54.2,22.6c-0.1,0.2,0.1,0.3,0.2,0.4c0.2,0,0.4-0.1,0.4-0.3c-0.1-0.2-0.2-0.3-0.4-0.3
		C54.3,22.4,54.3,22.5,54.2,22.6z"/>
	<path class="st0" d="M45.9,23.1c0.1,0.1,0.2,0.1,0.3,0.1c0.1-0.1,0.3-0.2,0.3-0.4c-0.1-0.1-0.2-0.2-0.3-0.2
		C46,22.7,45.9,22.9,45.9,23.1z"/>
	<path class="st0" d="M41.2,23c0,0.2,0.1,0.3,0.2,0.3c0.2,0.1,0.3-0.1,0.4-0.1c0-0.1,0.1-0.2,0-0.2C41.6,22.8,41.3,22.8,41.2,23z"/>
	<path class="st0" d="M42.2,23.1c-0.1,0.1,0,0.2,0,0.3c0.1,0,0.3,0.2,0.4,0.1c0.1-0.1,0.2-0.1,0.1-0.3C42.6,23,42.5,23,42.4,23
		C42.3,23,42.2,23,42.2,23.1z"/>
	<path class="st0" d="M13,23.5c0-0.1,0.1-0.2,0-0.3c-0.1-0.1-0.2-0.2-0.3-0.2c-0.1,0-0.1,0.1-0.2,0.2c0,0.1-0.1,0.4,0.1,0.4
		C12.7,23.7,12.9,23.6,13,23.5z"/>
	<path class="st0" d="M48.1,23.5c0.1,0,0.3-0.1,0.3-0.3c-0.1-0.1-0.3-0.3-0.5-0.2c0,0.1-0.1,0.2-0.1,0.3
		C47.8,23.4,47.9,23.6,48.1,23.5z"/>
	<path class="st0" d="M46.8,23.2c0,0.1,0,0.2,0.1,0.3c0.1,0.1,0.3,0.1,0.4,0.1c0.1-0.1,0.3-0.2,0.2-0.4c-0.1-0.1-0.2-0.2-0.4-0.2
		C46.9,23.1,46.9,23.2,46.8,23.2z"/>
	<path class="st0" d="M55.3,23.4L55.3,23.4c-0.8-0.1-1.6-0.7-2.3-0.2c-0.1,0.1-0.4,0-0.5,0.2c0.7,0.3,1.6,0.6,2.4,0.2
		C55.1,23.6,55.4,23.7,55.3,23.4z"/>
	<path class="st0" d="M5.1,23.8c0.8,0.2,1.6,0,2.3-0.4l0.1-0.1l-0.1-0.1c-0.8-0.1-1.7,0-2.3,0.5L5.1,23.8z"/>
	<path class="st0" d="M50.2,23.4c-0.1-0.2-0.3-0.2-0.4-0.2c-0.1,0.1-0.3,0.2-0.2,0.3c0.1,0.2,0.3,0.2,0.5,0.2
		C50.1,23.6,50.2,23.5,50.2,23.4z"/>
	<path class="st0" d="M10.4,23.8c0.2-0.1,0.1-0.2,0.2-0.4c-0.1-0.2-0.3-0.3-0.5-0.2c-0.1,0.1-0.2,0.1-0.2,0.3
		C10,23.7,10.2,23.8,10.4,23.8z"/>
	<path class="st0" d="M8.9,23.8c0.1,0,0.3,0.1,0.3-0.1c0-0.1,0.1-0.2,0.1-0.3c0-0.2-0.2-0.2-0.4-0.3c-0.1,0.1-0.2,0.1-0.3,0.2
		C8.7,23.6,8.8,23.7,8.9,23.8z"/>
	<path class="st0" d="M51.4,23.9c0-0.1-0.2-0.3-0.3-0.3c-0.1,0-0.2,0-0.2,0.1c-0.1,0.1-0.1,0.2-0.1,0.3c0.1,0.1,0.2,0.2,0.3,0.2
		C51.3,24.2,51.4,24.1,51.4,23.9z"/>
	<path class="st0" d="M7.6,24.8C7.7,24.5,7.9,24.3,8,24c0-0.1,0.1-0.2,0.1-0.3l-0.1,0c-0.7,0.3-1.3,0.8-1.8,1.5l0.1,0.1
		C6.8,25.2,7.3,25.2,7.6,24.8z"/>
	<path class="st0" d="M50.3,24.4c0.1-0.1,0.3-0.1,0.3-0.3c-0.1-0.1-0.2-0.3-0.4-0.2C50,24,49.9,24,49.9,24.2
		C50,24.4,50.1,24.4,50.3,24.4z"/>
	<path class="st0" d="M9.7,23.9c-0.2,0.1-0.2,0.2-0.2,0.4c0.1,0.1,0.2,0.2,0.4,0.2c0.1-0.1,0.2-0.1,0.3-0.3c0,0-0.1-0.1-0.1-0.1
		C10,23.9,9.8,23.9,9.7,23.9z"/>
	<path class="st0" d="M54.3,25c0.1-0.1,0.3-0.2,0.2-0.4c-0.1-0.1-0.2-0.2-0.4-0.2c-0.2,0-0.2,0.2-0.4,0.3c-0.3-0.3-0.7-0.7-1.2-0.7
		c-0.2,0.1,0.1,0.3,0.2,0.4c0.2,0.5,0.8,0.9,1.3,1.1c0,0,0.2,0.1,0.2,0c0-0.1-0.1-0.3-0.2-0.4C54,24.9,54.2,25.1,54.3,25z"/>
	<path class="st0" d="M55.4,24.4c0.1-0.1,0.1-0.2,0-0.3C55.3,24,55.2,23.9,55,24c-0.1,0.1-0.2,0.1-0.3,0.2c0,0.1,0.1,0.2,0.1,0.3
		C55.1,24.5,55.3,24.6,55.4,24.4z"/>
	<path class="st0" d="M47.7,24.4c0.2,0.7,1,1.1,1.6,1.4c0,0,0.1,0,0.2,0c-0.1-0.2-0.2-0.5-0.4-0.7c-0.1-0.2-0.2-0.3-0.3-0.5
		c-0.3-0.2-0.8-0.6-1.2-0.5C47.5,24.2,47.7,24.3,47.7,24.4z"/>
	<path class="st0" d="M8.5,24.6c0.1,0.1,0.2,0.2,0.4,0.1c0.1-0.1,0.2-0.2,0.2-0.4c-0.1-0.1-0.2-0.2-0.3-0.2
		C8.6,24.2,8.4,24.4,8.5,24.6z"/>
	<path class="st0" d="M50.7,24.7c-0.1,0.1,0,0.2,0,0.3c0.1,0.1,0.3,0.1,0.4,0.1c0.1-0.1,0.2-0.1,0.2-0.2
		C51.1,24.6,50.9,24.4,50.7,24.7z"/>
	<path class="st0" d="M55.4,25.5c0.1-0.1,0.3-0.2,0.2-0.4c-0.1-0.1-0.1-0.1-0.2-0.2c-0.2-0.1-0.3,0-0.5,0.1c0,0.1-0.1,0.2,0,0.3
		C55.1,25.4,55.2,25.5,55.4,25.5z"/>
	<path class="st0" d="M43.5,27.5c-0.8-0.2-1.8-0.1-2.4,0.5V28c0.6,0,1.3,0,1.8-0.3C43.1,27.6,43.5,27.7,43.5,27.5z"/>
	<path class="st0" d="M17.7,28.5c0.2-0.1,0.2-0.1,0.3-0.3c0-0.1-0.2-0.2-0.3-0.3c-0.1,0.1-0.3,0.2-0.2,0.4
		C17.5,28.4,17.6,28.5,17.7,28.5z"/>
	<path class="st0" d="M42.5,28.4c0,0.1,0,0.2,0.1,0.3c0.1,0.1,0.2,0.2,0.4,0.1c0.2-0.1,0.2-0.2,0.3-0.4
		C43.1,28.1,42.6,28.1,42.5,28.4z"/>
	<path class="st0" d="M46.7,28.4c-0.9-0.1-2-0.1-2.5,0.6l0.1,0.1l0.9,0c0.6,0,1.1-0.3,1.5-0.6V28.4z"/>
	<path class="st0" d="M12.8,28.7c-0.1,0.1-0.2,0.2-0.1,0.4c0.1,0.1,0.2,0.2,0.4,0.2c0.2-0.1,0.2-0.2,0.2-0.3
		C13.1,28.8,12.9,28.5,12.8,28.7z"/>
	<path class="st0" d="M13.8,28.8c-0.1,0.1-0.2,0.1-0.2,0.2c-0.1,0.1,0,0.2,0.1,0.3c0.1,0.1,0.2,0.1,0.3,0c0-0.1,0.1-0.1,0.1-0.2
		C14,29,13.9,28.9,13.8,28.8z"/>
	<path class="st0" d="M6.7,30.7c0.2,0.1,0.5,0.4,0.6,0.2c-0.4-0.5-0.5-1.1-1.1-1.4c-0.1-0.1-0.3-0.1-0.4-0.2c-0.1,0-0.3-0.2-0.3,0
		C6.1,29.7,6.1,30.3,6.7,30.7z"/>
	<path class="st0" d="M57.1,23.3c-0.5,0-0.8,0.3-1,0.7c-0.1,0.4,0,0.7,0.3,1c0.1,0.1,0.3,0,0.3-0.1c0.1-0.2-0.2-0.2-0.2-0.4
		c-0.1-0.2,0-0.5,0.2-0.6c0.2-0.2,0.5-0.1,0.7-0.1c0.2,0.1,0.4,0.3,0.5,0.5c0.1,0.3,0.1,0.6,0,0.9c-0.2,0.4-0.6,0.8-1.1,0.9
		c-1.5,0.2-17.4,0.1-17.4,0.1c-1.9,0.2-4-0.4-5.6,0.6c-0.7,0.4-1.1,1.2-1.3,1.9c-0.5,0.4-1,0.9-1.4,1.4l-0.1-0.1
		c0.1-0.4,0.3-0.8,0.4-1.2c0.3-0.4,0.3-0.8,0.5-1.2c0.7-1.1,1.3-2.2,2.3-2.9c0.4-0.6,1.2-0.5,1.9-0.5c0.7,0.3,1.6,0.4,2.4,0.4
		c0,0,0.1-0.1,0.1-0.1c-0.2-0.2-0.6-0.3-0.9-0.5c-0.7-0.3-1.4,0.1-2.1,0.1c0,0-0.1-0.1-0.1-0.1c0.7-0.5,1.4-0.8,2.2-1.2
		c0.6-0.3,1.3-0.5,1.9-0.8c0.3,0,0.5-0.2,0.8-0.1c-0.5,1-1,2.1-1.8,3c-0.3,0-0.4,0.3-0.7,0.3c-0.1,0.2-0.4,0.1-0.6,0.1
		c-0.5,0.2-1.3,0.1-1.7,0.6c0,0.1,0.1,0.1,0.1,0.1c1.1,0,2.3,0.1,3.4,0c0.1-0.1,0.3-0.2,0.3-0.3c-0.2-0.3,0.1-0.6,0.2-0.8
		c0.1-0.4,0.4-0.7,0.5-1.1c0.4-0.7,0.8-1.4,1.2-2.1l0,0c0,0,0.1,0.1,0.1,0.1c0.8-0.3,1.8,0,2.7,0l0.1,0.1l0,0v0
		c0.1,0.8-0.1,1.7-0.2,2.6c-0.3,1-1.5,0.9-2.3,1.1c-0.2,0.1-0.6,0.1-0.6,0.4c1,0.2,2.2,0.1,3.3,0.1c0.2-0.1,0.2-0.2,0.3-0.4
		c0-0.2,0.3-0.4,0.2-0.7c-0.2-0.2,0-0.6-0.1-1c0-0.1,0-0.2,0-0.3c0.1-0.5,0.1-1.1,0.2-1.6l0,0h0c0.3,0,0.5,0.4,0.8,0.4
		c0.2-0.2-0.2-0.4-0.3-0.5c0.4-0.1,0.8,0,1.2,0.2l-0.2,0.2c-0.1,0.2,0.1,0.3,0.2,0.4c0.1,0,0.2-0.1,0.3-0.1c0.2-0.2,0-0.3,0.1-0.5
		c1.3,0.2,2.5,0.5,3.7,1.1c0.3,0.1,0.6,0.4,1,0.3c-0.4-0.3-0.9-0.5-1.3-0.7c-0.3-0.2-0.7-0.2-0.9-0.4c0.1-0.1,0.2-0.1,0.2-0.1
		c0.6-0.1,1.1-0.5,1.5-1c0-0.1,0.2-0.1,0.2-0.2c-0.2-0.2-0.4,0.1-0.6,0c-0.7,0.1-1.1,1-1.8,1.2c-0.9-0.2-1.8-0.4-2.7-0.7
		c-0.4-0.1-0.9-0.1-1.3-0.3h0l0,0c0-0.3,0.1-0.7,0.1-1c0.1-0.1,0.1-0.2,0.1-0.4c0.1-0.1,0.1-0.1,0.2-0.2l0.4-0.2c0.4-0.1,1,0,1.4,0
		c0.3,0.1,0.6,0.1,0.9,0.2c0.1-0.1,0.3-0.1,0.4-0.1c0.6-0.3,0.2-1,0.2-1.5h0c0.5-0.4,0.9-0.9,1.3-1.4c0-0.1-0.1-0.3-0.2-0.3
		c-0.1-0.1-0.3,0-0.3,0.1c-0.2,0.2,0,0.4,0,0.5c-0.2,0.3-0.5,0.5-0.8,0.7c0,0-0.1,0-0.1,0.1l0-0.1c-0.1-0.1-0.1-0.2-0.1-0.4
		c-0.1-0.1-0.2-0.4-0.3-0.5c-0.3-0.8-0.9-1.2-1.4-1.8c-0.9-1.2-2.3-1.8-3.7-2.3c-1.4-0.5-2.8,0.1-4,0.6c-0.4-0.1-0.6-0.4-0.7-0.7
		c-0.1-0.7,0.1-1.3,0.3-1.9c0.1-0.4,0.4-0.8,0.5-1.2c0.3-1,0.6-2,0.7-3c0-0.7-0.5-1.1-0.9-1.4c-0.3-0.1-0.7-0.1-1,0.2
		c-0.2,0.5-0.7,0.8-1.1,1c0,0.3,0.3,0.1,0.5,0.2c0.4,0.1,0.8-0.1,1.1,0.2c0,0.7-0.4,1.3-0.7,1.8c-0.6,0.9-1.2,1.8-1.6,2.7l0,0l0-0.9
		h0v0h-8.3c-0.4-0.1-0.7-0.6-1.2-0.6c-1-0.4-1.6,0.6-2.6,0.5c-0.1,0.1-0.1,0.2-0.2,0.3c-0.1,0.1-0.1,0-0.2,0
		c-0.1-0.4-0.2-0.8-0.2-1.2c-0.1-0.2-0.1-0.4-0.1-0.6c-0.6-1.5,1.4-0.4,1.8-1.3c0.3-0.8-0.6-0.9-0.9-1.4V5.9
		c-0.3-0.3-0.6-0.4-0.8-0.7c0.1-0.4,0.2-0.9,0.1-1.4c0-0.1-0.1-0.2-0.2-0.2c-0.3,0.5-0.6,0.8-0.9,1.3c-0.3-0.2-0.6-0.6-1-0.8
		c-0.3,0-0.5-0.3-0.8-0.2c-0.1,0.1,0,0.2,0.1,0.3c0,0.7,0.4,1.2,0.9,1.7l0.1,0.3c-0.3,0.7-0.2,1.5-0.3,2.3c-0.8,2-2.1,3.9-3.8,5.3
		c-1,1.1-2.2,2.2-2.3,3.8c-0.1,0.2,0,0.5-0.2,0.7c-0.6-0.2-1.2-0.5-1.6-0.9c-0.8-0.6-2-0.5-2.5-1.5c-0.2-0.4,0.1-0.8,0.2-1.1
		c0.6-0.6,0.5-1.6,0.2-2.3c-0.1,0-0.1,0.1-0.1,0.1c-0.1,1-0.9,1.8-0.6,2.9c0.1,0.3,0.2,0.5,0.3,0.9c-0.1,0-0.3,0-0.4-0.1
		c-0.4-0.1-0.8-0.2-1.2-0.2c-0.8,0.4-1.9-0.1-2.6,0.7c-0.1,0-0.2,0-0.2,0.2c0.4,0,0.8,0.1,1.1,0.1c0.6,0.1,1-0.4,1.4-0.6h0.1
		c0.2-0.2,0.5-0.1,0.7-0.1c1.1,0.1,2,0.7,2.9,1.2v0.1c-0.4,0.2-0.8,0.3-1.1,0.5c-0.4,0.3-0.9,0.7-1,1.2c-0.3,0.4,0.1,0.8,0.3,1.2
		c0,0.2,0,0.4,0.2,0.5c0.6-0.6,0-1.3,0.1-2c0.1-0.5,0.6-0.8,1.1-0.9c1-0.4,1.7,0.4,2.5,0.8c0,0.8,0.1,1.6-0.1,2.4
		c-0.2,0.1-0.6,0.1-0.8,0.1c-1.4,0.1-2.5,0.9-3.7,1.3c-0.6,0.2-1.2,0.2-1.8,0.4c0.4,0.1,0.9,0,1.3-0.1c1.7-0.2,3-1.6,4.9-1.3l0,0.1
		c-0.2,0.4-0.5,0.8-0.8,1.1c-0.1-0.2-0.1-0.4-0.2-0.5c-0.1-0.1-0.3,0-0.4,0.1c-0.1,0.1-0.1,0.2,0,0.3c0.1,0.2,0.2,0.2,0.4,0.2
		c0,0.2-0.2,0.2-0.3,0.4c-0.5,0.8-1.5,0.5-2.1,1.1c-0.1,0.1-0.4,0.2-0.3,0.4c0.7,0.1,1.3-0.1,1.8-0.5c0.6-0.7,1.3-1.4,2-2.1
		c0.1,0.6-0.1,1.1-0.4,1.6c-0.2-0.1-0.3-0.2-0.5-0.3c-0.2,0-0.3,0.2-0.3,0.4c0.1,0.1,0.1,0.3,0.3,0.4c-0.6,0.4-1.3,0.5-2,0.7
		c-1.3,0.2-2.5,0.3-3.8,0.3c-0.6,0-1.3,0.2-1.9,0c-0.7,0.1-1.4-0.1-1.9,0.3c-0.1,0.1,0,0.2,0,0.3C5,26.4,6.1,26,7,26.1h6.9
		c0.5,0,1,0,1.4-0.3c0.9-0.5,1.4-1.4,1.8-2.3c0.2-0.3,0.3-0.7,0.4-1.1c0.2-0.6,0.7-1,1.3-1.1c0.1,0.9-0.1,1.8-0.3,2.7
		c-0.1,0.6-0.5,1.1-0.2,1.7c0.1,0.3,0.4,0.3,0.6,0.3c2.1,0,4.2-0.1,6.5,0c0.4,0.1,0.8,0.2,1.2,0.2c0-0.1,0.2-0.1,0.1-0.2
		c-0.1-0.2-0.2-0.4-0.4-0.5c0-0.1-0.2-0.1-0.2-0.1c-1.1-0.6-2.5-0.3-3.8-0.3c-0.7,0.1-1.4,0.2-1.9-0.2c-0.3-0.3-0.1-1.3-0.1-1.3
		c0-0.2,0.3-1.1,0.5-1.9c0.5,0.1,1.8,0.9,1.8,0.9c0.6,0.2,1.2,0.6,1.7,0.9c2.4,1.3,4,3.5,5,5.9c0,0.2,0.2,0.4,0.1,0.6
		c-0.4-0.6-0.9-0.9-1.3-1.3c-0.1-0.8-0.6-1.6-1.3-2c-0.3-0.4-0.8-0.4-1.3-0.5l-6.4,0c-5.2-0.1-9.9,0.2-15,0.1
		c-0.7-0.1-1.6-0.3-1.8-1.1c-0.1-0.3-0.1-0.7,0-1c0.2-0.3,0.5-0.4,0.9-0.5c0.3,0,0.5,0.3,0.6,0.5c0,0.2-0.2,0.4-0.3,0.6
		c0,0.1,0.1,0.2,0.2,0.2c0.2-0.1,0.4-0.3,0.5-0.6c0-0.1,0.1-0.3-0.1-0.4c-0.1-0.4-0.5-0.6-0.8-0.7c-0.4,0-0.9,0.1-1.2,0.4
		c-0.4,0.4-0.4,1-0.3,1.5c0.3,0.8,1.1,1.3,1.9,1.4l17,0.1c1.7,0.1,3.5-0.2,5.2,0.1c0.6,0.2,1.3,0.6,1.4,1.3c0,0-0.1,0-0.1,0
		c-1.4-0.9-3.2-1.2-5-1c-0.7,0-1.3,0.2-2,0.4c-0.3,0.1-0.6-0.1-0.9-0.3c-0.6-0.6-1.7-0.5-2.5-0.3c0,0.1,0,0.1,0,0.1
		c0.9-0.1,1.4,0.7,2.1,0.8c0.2,0,0.3-0.2,0.5,0c-0.8,0.4-1.6,0.8-2.4,1.1c-0.3-0.1-0.4-0.3-0.6-0.4c-0.3-0.4-0.9-0.2-1.4-0.2
		c-0.2,0-0.3-0.1-0.4,0c0.1,0.3,0.5,0.4,0.8,0.6c0.4,0.2,0.9,0,1.3,0.2c-0.1,0.1-0.2,0.2-0.4,0.2c-0.8,0.3-1.5,1.1-2.4,1
		c-1,0.1-1.9-0.2-2.6-0.8c-0.3-0.7-1-1.1-1.8-1c-0.1,0-0.1,0-0.1,0.1c0.4,0.2,0.7,0.7,1.1,1c0.2,0.3,0.7,0,0.9,0.3
		c0.3,0.2,0.8,0.4,1.1,0.5c0.3,0.1,0.6,0.2,0.9,0.2l-0.1,0.1c-1.6,0.5-3.4,0.6-5.2,0.5c-0.5,0-1-0.2-1.6-0.2
		c0.1,0.1,0.3,0.2,0.4,0.2c-0.1,0.1-0.3,0.1-0.5,0.1c-0.2,0.1-0.5,0.1-0.7,0.2c-0.3,0-0.5,0.1-0.8,0.2c-0.3,0.3-0.6,0.7-1,0.8
		c0,0.1,0,0.2,0.1,0.2c0.3-0.1,0.8,0,1.1-0.2c0.6-0.1,0.9-0.7,1.4-1c0.5-0.4,1.2-0.3,1.8-0.2c0.3,0.1,0,0.2,0.1,0.5
		c0.1,0.1,0.3,0.3,0.5,0.2c0,0,0.1-0.1,0.1-0.1c0.1-0.1,0.1-0.3,0-0.4c0.2-0.2,0.6,0,0.8-0.1c0.7,0,1.3-0.2,2-0.2
		c0.1,0,0.2-0.1,0.3,0c-0.1,0.1-0.2,0.2-0.2,0.4c0,0.2,0.2,0.2,0.3,0.3c0.2-0.1,0.3-0.2,0.3-0.4c0-0.1-0.2-0.1-0.3-0.2
		c0.4-0.2,0.8-0.2,1.2-0.4c0.3-0.1,0.5-0.1,0.7-0.2c0.2,0,0.4-0.2,0.6-0.1c-0.1,0.3-0.2,0.6-0.4,0.8c-0.3,0.9-0.5,2.2,0,3.1
		c0.1,0,0.1,0,0.1,0c-0.4-0.9-0.2-2,0.2-2.9c0.2-1.5,1.8-1.9,2.9-2.5l0.1,0.1c-0.3,0.8-0.7,1.5-0.7,2.4c0,0.2-0.1,0.3,0,0.4
		c0.3-0.2,0.5-0.5,0.6-0.8c0.1-0.8-0.3-1.8,0.5-2.4c1.4-0.6,2.8-1.3,4.4-1.3c0.1,0.1,0.2,0,0.2,0.1c-0.3,0.4-0.9,0.8-1,1.2
		c-0.6,0.8-0.5,2.1-0.3,3c0.2,0.5-0.3,0.8-0.5,1.3c-0.1,0.1-0.1,0.4-0.2,0.6l0.3,0c0.3-0.3,0.6-0.7,0.6-1.2c0,0.2,0.2,0.3,0.3,0.4
		c0.1-0.2-0.1-0.3-0.1-0.5c0.3-0.2,0.4,0.2,0.6,0.3c0.4,0.1,0.7,0.2,1.1,0.2l0.1-0.1c-0.4-0.6-1.2-0.7-1.8-0.7
		c-0.3-0.6-0.3-1.3-0.3-2c0.1-0.4,0.1-0.8,0.4-1.1c0.1-0.2,0.3-0.5,0.5-0.7c0.3-0.3,0.7-0.5,1.1-0.6h0.1c0,0,0,0.1,0,0.1
		c-0.5,0.4-0.5,0.9-0.8,1.3c-0.3,0.4-0.4,1-0.2,1.5c0.1,0.2,0.1,0.6,0.3,0.7c0.2-0.3,0.2-0.7,0.4-1.1c-0.1-0.6-0.4-1.1-0.1-1.7
		c0.2-0.4,0.5-0.6,0.9-0.8c1-0.1,1.8,0.4,2.6,0.8c0.2,0.1,0.5,0.2,0.5,0.5c0,0.5-0.3,0.9-0.6,1.2c-0.5,0.3-1.2,0.3-1.6,0
		C25,30,24.9,29.6,25,29.2c0.2-0.2,0.5-0.4,0.8-0.3c0.2,0.1,0.3,0.3,0.6,0.2c0.1-0.1,0.1-0.2,0.1-0.3c-0.2-0.1-0.3-0.4-0.5-0.4
		c-0.3-0.1-0.7,0-1,0.2c-0.4,0.3-0.5,0.8-0.4,1.2c0.1,0.6,0.5,1,1.1,1.1c0.8,0.2,1.6-0.1,2.2-0.7c0.2-0.2,0.3-0.5,0.4-0.8
		c0.8,0.5,1.5,1.4,1.8,2.3c0,0.3,0.1,0.6,0,0.9l0.6,0.1c-0.1-0.1,0-0.3,0.1-0.4c0.2-1.2,0.9-2.1,1.8-2.9c0.3-0.2,0.2,0.2,0.3,0.4
		c0.3,0.7,0.9,1.1,1.5,1.3c0.7,0.1,1.4-0.1,1.9-0.6c0.2-0.4,0.5-1,0.1-1.5c-0.2-0.3-0.6-0.5-1-0.5c-0.5,0-0.7,0.3-1,0.7
		c0,0.1,0,0.3,0.1,0.4c0.1,0,0.2,0,0.3-0.1c0-0.3,0.3-0.4,0.5-0.5c0.2-0.1,0.4,0,0.6,0.1c0.2,0.2,0.2,0.4,0.2,0.7
		c0,0.3-0.3,0.7-0.6,0.8c-0.5,0.3-1.2,0.1-1.7-0.2c-0.2-0.2-0.3-0.5-0.5-0.8c0-0.3-0.1-0.5,0-0.8c0.8-0.5,1.6-0.8,2.5-0.9
		c0.4,0.1,0.7,0.3,0.9,0.6c0.8,0.8-0.2,2,0.4,2.9c0.2,0,0.2-0.3,0.3-0.5c0.3-0.6-0.1-1.3-0.2-1.9c-0.2-0.4-0.3-0.7-0.7-1
		c0.1,0,0.1,0,0.2,0c0.4,0.2,0.8,0.5,1.1,0.9c0.5,0.8,0.8,1.8,0.7,2.9c-0.1,0.5-0.7,0.8-1.1,1c-0.2,0.1-0.4,0.4-0.5,0.6
		c0.2,0.1,0.5,0,0.7-0.1c0.3-0.1,0.5-0.5,0.8-0.7c0,0,0,0.1,0,0.1c0,0.2-0.1,0.5,0.1,0.5c0.1-0.2,0.1-0.6,0.2-0.9
		c0.2,0.2,0.3,0.6,0.3,0.9c0.2,0.3,0.4,0.7,0.8,0.8c0.1-0.2,0-0.3-0.1-0.5c-0.1-0.4-0.4-0.7-0.7-1c-0.6-0.8-0.3-2.2-0.8-3.1
		c-0.2-0.5-0.5-0.9-0.9-1.3l0.1-0.1c0.9,0,1.6,0.3,2.4,0.4c1,0.5,2.4,0.4,2.8,1.6c0.2,0.7,0.5,1.4,1,1.9l0.1,0
		c0.1-0.2,0.1-0.5,0-0.7c-0.1-0.9-0.9-1.1-1.3-1.8l0.1-0.1c0.4,0.1,0.9,0.2,1.3,0.4c1.4,0.4,2.4,1.8,2.6,3.2c0,1.1-0.2,2.1-0.6,3
		c-0.1,0.1-0.3,0.3-0.1,0.4c0.2-0.1,0.2-0.4,0.3-0.5c0.6-1,0.9-2.3,0.6-3.5c0-0.2-0.3-0.4-0.2-0.6c0.1,0.1,0.2,0.1,0.3,0.2
		c0.1-0.1,0.3-0.1,0.3-0.2c0-0.1,0.1-0.2,0-0.3c-0.1-0.2-0.3-0.2-0.5-0.1c-0.1,0.1-0.2,0.2-0.2,0.4c-0.2-0.3-0.3-0.7-0.6-0.9l0-0.1
		c0.8,0.3,1.5,0.7,2.3,0.9c0.2,0.1,0.4,0.2,0.6,0.2c0.7,0.3,1.4,0.4,2.1,0.5c0.5-0.1,1,0.2,1.5,0.1v0l0,0c-0.2-0.2-0.6,0-0.8-0.2
		c-1.2-0.1-2.4-0.4-3.4-0.9c0-0.1,0.1,0,0.1,0c0.2-0.1,0.3-0.2,0.3-0.4c-0.1-0.1-0.2-0.2-0.4-0.2c-0.1,0.1-0.2,0.2-0.3,0.3
		c0,0.1,0.1,0.3,0.3,0.3c0,0-0.1,0-0.2,0c-0.5-0.2-1.1-0.5-1.6-0.7c-0.2,0-0.4-0.2-0.5-0.2c-0.4-0.2-0.8-0.4-1.2-0.5
		c-1.1-0.6-2.4-0.9-3.5-1.3c-0.3-0.1-0.5-0.1-0.8-0.2c-0.4-0.1-0.9-0.2-1.3-0.4c-1.5-0.4-3.5-0.4-4.8,0.4c-0.2-0.1-0.3,0.3-0.4,0.1
		c0.4-1,1.4-1.3,2.4-1.3c7-0.1,13.6-0.1,20.5-0.2c0.8,0,1.6-0.3,2-1c0.3-0.4,0.3-1.1,0.1-1.6C58.1,23.5,57.6,23.3,57.1,23.3z
		 M42.4,21.3c0,0-0.1-0.1-0.1-0.1c0.6-0.2,1.2-0.5,1.8-0.7l0,0l0.1,0.2l0,0.6l0,0H42.4z M42.4,19.8c0.1-0.1,0.2-0.3,0.3-0.5
		c0-0.2-0.1-0.2-0.2-0.4c0.1-0.1,0.3-0.1,0.5-0.1c0.4,0.3,0.9,0.7,1,1.2l0,0c-0.7,0.3-1.4,0.6-2.1,0.8C42,20.5,42.2,20.1,42.4,19.8z
		 M36.2,15.6c0.6,0.9,1.3,2,2.3,2.3c0.6,0.5,1.3,1,2,0.6c0.4-0.1,0.4,0.4,0.6,0.7c0.2,0.7-0.3,1.1-0.3,1.7l0,0
		c-0.1,0.2-0.2,0.3-0.4,0.4c-0.3,0.1-0.5,0.2-0.8,0.2c-2.3,0.9-4.6,1.8-6.4,3.6c0.1-0.2,0.2-0.5,0.2-0.7c0-0.3,0-0.6-0.2-0.8
		c0-0.1-0.2-0.4-0.1-0.5l2.2-1.4c0.6-0.3,1-1.1,1-2l0-5.7L36.2,15.6z M35.9,19.9c-0.1,0.7-0.3,1.3-0.8,1.6l-4.6,2.9h0
		c-0.1,0.1-0.2,0.1-0.4,0.1c-0.1,0-0.3-0.1-0.4-0.1l-4.6-2.9c-0.5-0.3-0.7-0.9-0.8-1.6v-2.4c0,0,0.1,0.1,0.1,0
		c0.5-0.3,0.3-1,0.3-1.4c0.1-0.5-0.3-0.8-0.4-1.3c0,0,0,0,0,0v-4h1.9c0.1,0.1,0.3,0.2,0.4,0.2l0.1-0.2h9V19.9z M23.3,13.2
		c0.1-0.4,0.2-0.8,0.6-1c0.1,0,0.1,0.1,0.1,0.1l0,0l0,1.9C23.9,13.9,23.2,13.7,23.3,13.2z M26.7,24.9c-1.8-1.4-3.8-2.6-5.8-3.5
		c0.2-0.5,0.3-1,0.4-1c0-0.3,0.1-0.5,0.1-0.8c0.1-0.4,0.1-0.8,0.1-1.2c0.1-0.6,0.3-1.1,0.5-1.6c0.1-0.3,0.2-0.5,0.3-0.8
		c0.1-0.3,0.1-0.7,0.4-0.9c0.5,0.3,1.1,0.4,1.4,0.9l0,3.9c0,1,0.4,1.8,1,2l1.9,1.2C26.9,23.6,26.5,24.2,26.7,24.9L26.7,24.9z
		 M29.4,28.5c-0.6-1.2-1.3-2.2-2.2-3.2c0-0.2-0.2-0.3-0.1-0.5c0.3-0.3,0.4-0.9,0.2-1.3c0-0.1-0.1-0.2-0.1-0.3L27,23.1l2.7,1.7
		c0.1,0.1,0.3,0.2,0.4,0.2c0.1,0,0.3-0.1,0.4-0.2l0.9-0.6c-0.7,1,0.4,2.4-0.4,3.4v0.1c-0.2,0.3-0.4,0.6-0.7,0.8
		c-0.4-0.2-0.6-0.7-0.8-1c-0.4-0.4-0.4-1.1-0.2-1.6c0.2-0.5-0.1-1-0.2-1.4L29,24.4c-0.4,0.5-0.6,1.4-0.2,2.1c0.2,0.3,0.2,0.8,0.5,1
		c0.2,0.5,0.5,0.8,0.8,1.3c0.1,0.2-0.1,0.2-0.2,0.3C29.5,29,29.6,28.7,29.4,28.5z M30.6,30.5c-0.1,0.2-0.2,0.4-0.2,0.6l-0.1,0
		c0.1-0.3-0.2-0.4-0.1-0.7C30,30.3,30,30,29.9,29.8c-0.2-0.3,0.1-0.4,0.3-0.6c0.2,0.1,0.3,0.3,0.5,0.5C30.8,30,30.5,30.2,30.6,30.5z
		 M30.5,28.8c0.6-0.8,1.1-1.6,1.2-2.6c0.1-0.1,0-0.3,0.2-0.4c0-0.3,0.2-0.6,0-0.8c0.1-0.4-0.5-0.7-0.1-1l-0.1,0l1.1-0.7
		c-0.2,0.4-0.3,1.1-0.1,1.5c0.1,0.3,0.3,0.7,0.1,1c-0.8,1-1.3,2.3-1.9,3.4C30.6,29.2,30.5,29,30.5,28.8z"/>
	<path class="st0" d="M47,30.2c0,0,0,0.1,0,0.1c0.1,0,0.2,0,0.2-0.1c0.9,0,1.7-0.2,2.3-0.7c0-0.1-0.1-0.1-0.1-0.2
		C48.6,29.2,47.6,29.5,47,30.2z"/>
	<path class="st0" d="M46.4,30.2c0.2-0.1,0.3-0.2,0.3-0.5c-0.1-0.2-0.4-0.2-0.5-0.1c-0.1,0.1-0.2,0.2-0.1,0.3
		C46.1,30,46.3,30.1,46.4,30.2z"/>
	<path class="st0" d="M12.8,29.9c0,0.1,0.1,0.2,0.2,0.3c0.1,0,0.2,0,0.3-0.1c0.1-0.1,0.1-0.2,0.1-0.4c-0.1-0.2-0.3-0.1-0.4-0.1
		C12.9,29.7,12.8,29.8,12.8,29.9z"/>
	<path class="st0" d="M10.3,31v-0.1c-0.7-0.5-1.2-1.2-2.1-1.2c-0.1,0,0,0.1,0,0.2C8.7,30,9,30.4,9.2,30.7C9.5,31,9.9,31.1,10.3,31z"
		/>
	<path class="st0" d="M52,29.7c-0.7,0.3-1.3,1-1.6,1.7c0.1,0.1,0.2-0.1,0.3-0.1c0.7-0.3,1.1-1,1.5-1.6C52.1,29.7,52,29.7,52,29.7z"
		/>
	<path class="st0" d="M13.9,30.1c0.1,0.1,0.2,0.2,0.3,0.2c0.1-0.1,0.3-0.1,0.2-0.3c-0.1-0.1-0.2-0.2-0.4-0.2
		C14,29.8,13.9,29.9,13.9,30.1z"/>
	<path class="st0" d="M54.2,30.8c0.2-0.2,0.1-0.6,0.2-0.8l-0.1-0.1c-0.6,0.2-0.9,0.8-1.2,1.4c-0.1,0.2-0.3,0.3-0.2,0.5
		C53.5,31.7,53.8,31.2,54.2,30.8z"/>
	<path class="st0" d="M4.4,30.2c-0.1,0.1,0,0.3,0.1,0.4c0.1,0.1,0.3,0,0.4-0.1c0.1-0.1,0.1-0.3,0-0.4C4.8,30,4.5,30.1,4.4,30.2z"/>
	<path class="st0" d="M4,30.6c0-0.1,0-0.2-0.1-0.2c-0.1-0.1-0.3-0.2-0.4-0.1c-0.1,0.1-0.2,0.2-0.2,0.4c0.1,0.2,0.2,0.3,0.4,0.2
		C3.8,30.8,3.9,30.7,4,30.6z"/>
	<path class="st0" d="M5.3,30.7c0.1,0.1,0.3,0.3,0.5,0.2c0.2,0,0.2-0.3,0.1-0.4c-0.1-0.1-0.3-0.2-0.5-0.1
		C5.4,30.4,5.3,30.6,5.3,30.7z"/>
	<path class="st0" d="M8.5,30.6c-0.1,0-0.2,0.1-0.2,0.2c-0.1,0.1,0.1,0.2,0.1,0.3c0.1,0,0.2,0.1,0.3,0c0.1,0,0.1-0.2,0.1-0.3
		C8.8,30.6,8.6,30.6,8.5,30.6z"/>
	<path class="st0" d="M55.6,30.6c-0.1,0.1-0.3,0.2-0.2,0.4c0.1,0.2,0.2,0.2,0.4,0.2c0.1,0,0.2-0.2,0.3-0.3
		C56,30.7,55.8,30.6,55.6,30.6z"/>
	<path class="st0" d="M52.4,30.7c-0.1,0.1-0.3,0.2-0.3,0.3c0.1,0.2,0.3,0.4,0.5,0.3c0.1-0.1,0.2-0.2,0.2-0.3
		C52.8,30.8,52.6,30.6,52.4,30.7z"/>
	<path class="st0" d="M54.9,31.2C55,31.2,55,31,55,30.9c-0.1-0.2-0.3-0.2-0.5-0.1c-0.1,0.1-0.2,0.2-0.1,0.4
		C54.6,31.2,54.7,31.3,54.9,31.2z"/>
	<path class="st0" d="M4.5,31.2C4.4,31.1,4.2,31,4,31c-0.1,0.1-0.2,0.2-0.2,0.4c0.1,0.2,0.2,0.2,0.4,0.2C4.4,31.6,4.5,31.4,4.5,31.2
		z"/>
	<path class="st0" d="M51.8,31.9c0.2-0.1,0.3-0.3,0.2-0.5c-0.1-0.2-0.5-0.3-0.6,0c-0.1,0.1-0.1,0.3,0,0.4
		C51.5,31.8,51.6,31.9,51.8,31.9z"/>
	<path class="st0" d="M13.7,31.9c0.1-0.1,0.3-0.1,0.2-0.3c-0.1-0.1-0.2-0.3-0.4-0.2c-0.1,0-0.1,0.1-0.2,0.2
		c-0.1,0.2,0.1,0.3,0.1,0.4C13.5,32,13.6,32,13.7,31.9z"/>
	<path class="st0" d="M55.4,31.5c-0.1,0-0.1,0.1-0.2,0.2c0,0.2,0,0.3,0.2,0.4c0.1,0,0.3,0,0.4-0.1c0-0.1,0.1-0.1,0.1-0.3
		C55.7,31.5,55.5,31.5,55.4,31.5z"/>
	<path class="st0" d="M54.2,32.2c0-0.1,0.1-0.1,0.2-0.1c0.1-0.1,0.3-0.2,0.3-0.4c-0.1-0.1-0.1-0.2-0.3-0.2c-0.1,0-0.2,0.1-0.3,0.1
		c-0.3,0.2,0.2,0.4,0,0.6c-0.3,0-0.7-0.1-1,0.2c0.1,0.1,0.4,0.1,0.5,0.2c0.5,0.5,1.1,0.7,1.7,0.7v-0.1C55,32.8,54.7,32.4,54.2,32.2z
		"/>
	<path class="st0" d="M46.9,31.7c-0.1,0.2,0.1,0.3,0.2,0.4c0.1,0.1,0.3,0,0.4-0.1c0-0.1,0.1-0.2,0.1-0.3
		C47.5,31.5,47,31.5,46.9,31.7z"/>
	<path class="st0" d="M8.4,32.4c0-0.3-0.3-0.4-0.5-0.2c0,0.1-0.1,0.2-0.1,0.3c0.1,0.1,0.2,0.2,0.3,0.2C8.3,32.7,8.4,32.6,8.4,32.4z"
		/>
	<path class="st0" d="M8.4,33.5C8.3,33.6,8,33.8,8.1,34c0.7-0.1,1.1-0.6,1.4-1.2c0.1-0.3,0.3-0.4,0.3-0.6H9.7
		C9.2,32.5,8.7,32.9,8.4,33.5z"/>
	<path class="st0" d="M46.5,32.3c-0.1,0.1-0.2,0.3,0,0.4c0.1,0.1,0.2,0.2,0.4,0.1c0.1-0.1,0.3-0.2,0.3-0.4
		C47,32.2,46.7,32.1,46.5,32.3z"/>
	<path class="st0" d="M47.7,32.9c0.1,0,0.1,0,0.2,0c0.2-0.1,0.3-0.2,0.3-0.4c-0.1-0.2-0.3-0.2-0.5-0.2c-0.1,0-0.2,0.2-0.2,0.2
		C47.5,32.7,47.6,32.8,47.7,32.9z"/>
	<path class="st0" d="M12.5,32.5c-0.1-0.1-0.2-0.3-0.4-0.2c-0.1,0.1-0.2,0.2-0.2,0.4c0.1,0.1,0.2,0.2,0.3,0.2
		C12.4,32.8,12.6,32.7,12.5,32.5z"/>
	<path class="st0" d="M13.1,32.7c0.1,0.1,0.2,0.2,0.3,0.2c0.2,0,0.3-0.1,0.3-0.3c0-0.2-0.2-0.3-0.4-0.3
		C13.2,32.4,13.1,32.5,13.1,32.7z"/>
	<path class="st0" d="M52,33.8c-0.2-0.5-0.6-1-1-1.3c-0.1-0.1-0.3-0.2-0.5-0.1c0.2,0.5,0.5,1,0.9,1.4c0.3,0.1,0.5,0.4,0.8,0.2
		C52.2,34,52,33.9,52,33.8z"/>
	<path class="st0" d="M52.3,32.5c-0.1,0.1-0.3,0.1-0.3,0.2c-0.1,0.2,0.1,0.3,0.1,0.4c0.2,0,0.4,0.1,0.5-0.1c0.1-0.1,0.1-0.3,0-0.4
		C52.5,32.5,52.4,32.4,52.3,32.5z"/>
	<path class="st0" d="M15.4,33.1c-0.1-0.1-0.2-0.2-0.3-0.1c-0.1,0.1-0.3,0.1-0.2,0.4c0.1,0.2,0.3,0.2,0.4,0.2
		C15.4,33.4,15.4,33.2,15.4,33.1z"/>
	<path class="st0" d="M48.6,35.5c0-0.5-0.2-0.9-0.5-1.3l-0.5-0.5c-0.2-0.1-0.3-0.4-0.5-0.2c0,0.1,0,0.1,0.1,0.2
		c0.3,0.8,0.5,1.6,1.3,2.1h0.1C48.7,35.7,48.5,35.6,48.6,35.5z"/>
	<path class="st0" d="M17.7,33.6C17.6,33.6,17.6,33.6,17.7,33.6l-0.9-0.2c-0.5-0.1-1,0.2-1.5,0.3c-0.1,0-0.1,0.1-0.1,0.2
		C16,34.4,17,34.1,17.7,33.6z"/>
	<path class="st0" d="M13.6,33.5c-0.9,0.1-2,0.6-2.3,1.6c0.2,0.1,0.3-0.1,0.4-0.1c0.7-0.2,1.3-0.9,1.9-1.3V33.5z"/>
	<path class="st0" d="M46.7,34.3c-0.1,0.1-0.2,0.1-0.3,0.2c0,0.1,0,0.3,0.2,0.4c0.1,0.1,0.2,0.1,0.3,0c0.1,0,0.2-0.2,0.1-0.4
		C47,34.3,46.9,34.3,46.7,34.3z"/>
	<path class="st0" d="M45,35c0.2-0.1,0.5-0.2,0.6-0.5c-0.1-0.1-0.2-0.1-0.2,0c-0.6-0.2-1.2,0-1.8,0.1c-0.1,0.1-0.3,0-0.3,0.2
		C43.9,35,44.4,35.2,45,35z"/>
	<path class="st0" d="M13.6,35.1c0-0.2-0.2-0.3-0.3-0.3c-0.1,0-0.2,0.1-0.3,0.2c-0.1,0.1,0,0.2,0.1,0.3c0.1,0.1,0.2,0.1,0.3,0.1
		C13.6,35.3,13.6,35.2,13.6,35.1z"/>
	<path class="st0" d="M14.4,35.6c0.1-0.1,0.2-0.2,0.2-0.3c-0.1-0.1-0.2-0.3-0.4-0.3C14.2,35,14.1,35,14,35.1c-0.1,0.1,0,0.2,0.1,0.4
		C14.2,35.5,14.3,35.6,14.4,35.6z"/>
	<path class="st0" d="M46.2,35.2c-0.1,0.1-0.2,0.2-0.1,0.4c0.1,0.1,0.1,0.2,0.2,0.2c0.1,0.1,0.3,0.1,0.4-0.1
		c0.1-0.1,0.1-0.2,0.1-0.3C46.7,35.2,46.4,35.1,46.2,35.2z"/>
	<path class="st0" d="M47.2,35.2c-0.2,0-0.3,0.3-0.2,0.5c0.1,0,0.1,0.2,0.2,0.1c0.2,0.1,0.3-0.1,0.4-0.2c0-0.1,0-0.2,0-0.2
		C47.5,35.3,47.4,35.2,47.2,35.2z"/>
	<path class="st0" d="M13.9,36.4c0.1-0.1,0.2-0.3,0.2-0.5c-0.1-0.2-0.3-0.2-0.5-0.2c-0.2,0.1-0.2,0.3-0.2,0.5
		C13.4,36.4,13.7,36.4,13.9,36.4z"/>
	<path class="st0" d="M13.6,37.2L13.6,37.2c0.3,0.3,0.6,0,0.8-0.1c0.5-0.3,0.6-0.9,0.6-1.4C14.6,36.3,13.9,36.7,13.6,37.2z"/>
	<path class="st0" d="M43.6,36c-0.1,0-0.2,0.1-0.2,0.2c-0.1,0.1,0,0.3,0.1,0.4c0.1,0.1,0.3,0.1,0.4,0c0.1-0.1,0.2-0.2,0.1-0.3
		C43.9,36.1,43.8,36,43.6,36z"/>
	<path class="st0" d="M16.7,36.8c-0.2-0.2-0.4-0.6-0.7-0.7c0,0-0.1,0-0.1,0c0.2,0.6,0.1,1.3,0.5,1.8c0.2,0.2,0.3,0.5,0.6,0.5
		c-0.1-0.4,0-1-0.2-1.4C16.8,36.9,16.7,36.9,16.7,36.8z"/>
	<path class="st0" d="M44.5,36.2c-0.1,0.1-0.2,0.1-0.2,0.3c0.1,0.1,0.2,0.1,0.3,0.2c0.1-0.1,0.2-0.1,0.2-0.3
		C44.8,36.2,44.7,36.1,44.5,36.2z"/>
	<path class="st0" d="M46,36.4l-0.1,0c-0.1,0.7,0.4,1.2,0.9,1.7h0.1c0.1,0,0.1-0.1,0.1-0.1C47,37.2,46.4,36.8,46,36.4z"/>
	<path class="st0" d="M45.5,37.7c0.1-0.1,0.2-0.2,0.2-0.3c-0.1-0.2-0.2-0.3-0.4-0.2c-0.1,0.1-0.3,0.2-0.3,0.4
		C45,37.7,45.3,37.8,45.5,37.7z"/>
	<path class="st0" d="M43.1,39c0,0.1-0.1,0.2,0,0.3c0.5-0.5,1.1-0.8,1.4-1.5c-0.1-0.1,0.2-0.3-0.1-0.4C43.8,37.6,43.3,38.3,43.1,39z
		"/>
	<path class="st0" d="M45.4,38.1c-0.1,0.1-0.2,0.1-0.2,0.3c0.1,0.1,0.2,0.2,0.4,0.2c0.1-0.1,0.2-0.2,0.2-0.3
		C45.8,38.1,45.6,38,45.4,38.1z"/>
	<path class="st0" d="M27.6,7.2h5.2c0.2,0,0.4-0.2,0.4-0.4c0-0.2-0.2-0.4-0.4-0.4h-5.2c-0.2,0-0.4,0.2-0.4,0.4
		C27.2,7,27.4,7.2,27.6,7.2z M32.6,6.4h0.2c0.4,0,0.3,0.6,0,0.6C32.6,7,32.1,6.4,32.6,6.4z M30.5,6.4H31c0.3,0,0.8,0.6,0.2,0.6h-0.5
		C30.5,7,30,6.4,30.5,6.4z M28.4,6.4h0.5c0.3,0,0.8,0.6,0.2,0.6h-0.5C28.4,7,27.9,6.4,28.4,6.4z"/>
	<path class="st0" d="M32.8,15.1l-0.4,1.6l1-0.4l1,0.4L34,15.1l0.7,0.2l-0.3-0.8l0.3-0.9l-0.8,0.2l0.4-1.5l-1,0.4l-1-0.4l0.4,1.5
		L32,13.6l0.2,0.8L32,15.3L32.8,15.1z M33.3,13.7c0.2,0.6,0.7,0,0.7,0.6c0,0.3,0,0.6-0.2,0.6H33c-0.4,0-0.3-0.2-0.3-0.6
		C32.7,13.8,33.2,14.2,33.3,13.7z"/>
	<path class="st0" d="M33.4,14.4c0.2,0,0.5,0.2,0.5-0.1c0-0.3-0.3-0.2-0.5-0.2s-0.5-0.1-0.5,0.2C32.9,14.6,33.2,14.4,33.4,14.4z"/>
	<polygon class="st0" points="30.4,14 30.5,13.9 30.3,13.9 30.2,13.7 30.1,13.9 29.9,13.9 30,14 29.9,14.2 30,14.2 30,14.4
		30.2,14.3 30.4,14.4 30.4,14.2 30.5,14.2 	"/>
	<polygon class="st0" points="29.3,15.2 29.3,15.4 29.4,15.3 29.6,15.4 29.6,15.2 29.8,15.2 29.6,15 29.7,14.9 29.5,14.9 29.4,14.7
		29.3,14.9 29.2,14.9 29.2,15 29.1,15.2 	"/>
	<polygon class="st0" points="30.5,14.9 30.4,15 30.6,15.1 30.6,15.3 30.7,15.1 30.9,15.3 30.9,15.1 31.1,15 30.9,14.9 31,14.7
		30.8,14.8 30.7,14.6 30.6,14.8 30.5,14.7 	"/>
	<polygon class="st0" points="31,15.7 30.9,15.7 30.8,15.6 30.8,15.7 30.7,15.7 30.7,15.8 30.6,15.9 30.7,15.9 30.7,16 30.8,15.9
		30.9,16 30.9,15.9 31,15.9 30.9,15.8 	"/>
	<polygon class="st0" points="30.3,16 30,16 29.8,15.7 29.6,16 29.3,16 29.5,16.2 29.2,16.5 29.5,16.5 29.5,16.8 29.8,16.6
		30.1,16.8 30.1,16.5 30.3,16.5 30.1,16.2 	"/>
	<polygon class="st0" points="29,3.9 28.9,5.5 30.1,4.5 31.3,5.5 31.2,3.9 32.8,3.6 31.5,2.7 32.3,1.3 30.8,1.7 30.1,0.2 29.5,1.7
		28,1.3 28.8,2.7 27.4,3.6 	"/>
	<path class="st0" d="M24.3,34.5c0-0.2,0-0.2,0.2-0.3l0-0.1l-0.8,0.2l0,0.1c0.3-0.1,0.4,0,0.4,0.2l0.2,0.9c0,0.2,0.1,0.6-0.5,0.8
		c-0.5,0.1-0.6-0.3-0.6-0.4l-0.2-1c-0.1-0.3,0-0.3,0.3-0.3l0-0.1l-1.2,0.3l0,0.1c0.2,0,0.3,0,0.3,0.2l0.2,1c0.1,0.3,0.2,0.4,0.4,0.5
		c0.3,0.1,0.6,0.1,0.7,0c0.2-0.1,0.5-0.2,0.6-0.4c0.1-0.2,0.1-0.4,0.1-0.6L24.3,34.5z"/>
	<path class="st0" d="M26.1,34.7l-0.6-0.1c-0.3-0.1-0.4-0.1-0.4-0.3c0-0.2,0.1-0.3,0.3-0.4c0.4-0.1,0.7,0.2,0.8,0.4l0.1,0l-0.1-0.6
		l-0.1,0c0,0.1,0,0.1-0.1,0.1c-0.1,0-0.3,0-0.6,0c-0.7,0.1-0.7,0.6-0.6,0.7c0,0.1,0.1,0.4,0.7,0.5l0.3,0c0.2,0,0.4,0.1,0.5,0.3
		c0,0,0.1,0.3-0.4,0.4c-0.4,0.1-0.7-0.2-0.9-0.5l-0.1,0l0.2,0.7l0.1,0c0-0.1,0-0.1,0.1-0.1c0.1,0,0.3,0,0.6,0
		c0.6-0.1,0.8-0.5,0.7-0.8C26.5,34.9,26.2,34.7,26.1,34.7z"/>
	<path class="st0" d="M26.6,33.7l0,0.6l0.1,0c0-0.5,0.4-0.5,0.6-0.6l0.2,1.6c0,0.3-0.1,0.3-0.3,0.3l0,0.1l1.3-0.1l0-0.1
		c-0.3,0-0.3,0-0.4-0.2L28,33.7c0.2,0,0.6,0,0.7,0.4l0.1,0l-0.1-0.6L26.6,33.7z"/>
	<path class="st0" d="M33.5,35.3l-0.6-1.7l-0.1,0l-1,1.5c-0.1,0.2-0.2,0.3-0.4,0.3c0,0-0.1,0-0.1-0.1l-0.7-0.9
		c0.2,0,0.6-0.1,0.6-0.5c0-0.5-0.7-0.5-1-0.5l-1.1,0l0,0.1c0.2,0,0.3,0,0.3,0.3l0,1.3c0,0.2-0.1,0.3-0.3,0.3l0,0.1l1.2,0l0-0.1
		c-0.2,0-0.3,0-0.3-0.3l0-0.6l0.1,0l0.7,1l0.7,0l0,0l0.7,0.1l0-0.1c-0.1,0-0.3-0.1-0.3-0.2c0,0,0.1-0.2,0.2-0.4l0.8,0.1
		c0,0.1,0.1,0.3,0.1,0.4c0,0.1-0.1,0.1-0.3,0.1l0,0.1l1.1,0.1l0-0.1C33.7,35.7,33.6,35.6,33.5,35.3z M30,34.5l0-0.8
		c0-0.1,0-0.1,0.2-0.1c0.3,0,0.4,0.1,0.4,0.4C30.6,34.4,30.4,34.5,30,34.5z M32.2,34.9l0.4-0.7l0.3,0.8L32.2,34.9z"/>
	<path class="st0" d="M36.1,35.6c-0.2,0.3-0.5,0.5-1,0.4c-0.2,0-0.3-0.1-0.3-0.2l0.3-1.4c0-0.3,0.2-0.2,0.4-0.2l0-0.1l-1.2-0.2
		l0,0.1c0.2,0,0.3,0.1,0.3,0.3l-0.3,1.4c0,0.2-0.1,0.2-0.3,0.2l0,0.1l2,0.4l0.3-0.6L36.1,35.6z"/>
	<path class="st0" d="M37.7,34.7L37.7,34.7l-1.2-0.3l0,0.1c0.2,0,0.3,0.1,0.3,0.3l-0.3,1.4c0,0.2-0.2,0.2-0.4,0.1l0,0.1l1.2,0.3
		l0-0.1c-0.2-0.1-0.3-0.1-0.3-0.3l0.3-1.4C37.3,34.6,37.5,34.6,37.7,34.7z"/>
	<path class="st0" d="M39.4,36.4l-0.6-1.6l-0.1,0l-1,1.5c-0.1,0.2-0.2,0.3-0.4,0.3l0,0.1l0.7,0.1l0-0.1c-0.1,0-0.3,0-0.3-0.2
		c0,0,0.1-0.2,0.2-0.4l0.8,0.1c0,0.1,0.1,0.3,0.1,0.4c0,0.1-0.1,0.1-0.3,0.1l0,0.1l1.1,0.1l0-0.1C39.6,36.8,39.5,36.7,39.4,36.4z
		 M38,36l0.4-0.7l0.3,0.8L38,36z"/>
	<path class="st0" d="M29.5,13.3C29.5,13.4,29.6,13.4,29.5,13.3l0.9,0.1c0.1,0,0.1,0,0.1-0.1v-0.2c0.1-0.1,0.2-0.2,0.2-0.4
		c0-0.7-0.4,0-0.6-0.7c-0.2,0.5-0.7,0.1-0.7,0.6c0,0.2,0.1,0.3,0.2,0.4V13.3z M30,12.5c0.2,0,0.5-0.1,0.5,0.3c0,0.3-0.3,0.1-0.5,0.1
		c-0.2,0-0.5,0.1-0.5-0.1C29.5,12.4,29.8,12.5,30,12.5z"/>
	<path class="st0" d="M36.9,21.5c0.2,0,0.3-0.1,0.3-0.3c0-0.2-0.1-0.3-0.3-0.3c-0.2,0-0.3,0.1-0.3,0.3
		C36.6,21.4,36.7,21.5,36.9,21.5z"/>
	<path class="st0" d="M35.3,11.4c0.1,0,0.2-0.1,0.2-0.2c0,0-0.2-0.3-0.2-0.3s-0.2,0.3-0.2,0.3C35.2,11.3,35.3,11.4,35.3,11.4z"/>
	<path class="st0" d="M24.6,11.2c0,0.1,0.1,0.2,0.2,0.2c0.1,0,0.2-0.1,0.2-0.2c0,0-0.2-0.3-0.2-0.3S24.6,11.2,24.6,11.2z"/>
	<path class="st0" d="M27.4,11.4c0.1,0,0.2-0.1,0.2-0.2c0,0-0.2-0.3-0.2-0.3s-0.2,0.3-0.2,0.3C27.3,11.3,27.3,11.4,27.4,11.4z"/>
	<path class="st0" d="M30.1,11.4c0.1,0,0.2-0.1,0.2-0.2c0,0-0.2-0.3-0.2-0.3s-0.2,0.3-0.2,0.3C29.9,11.3,30,11.4,30.1,11.4z"/>
	<path class="st0" d="M32.7,11.4c0.1,0,0.2-0.1,0.2-0.2c0,0-0.2-0.3-0.2-0.3s-0.2,0.3-0.2,0.3C32.5,11.3,32.6,11.4,32.7,11.4z"/>
	<path class="st0" d="M24.6,14.8c0,0.1,0.1,0.2,0.2,0.2c0.1,0,0.2-0.1,0.2-0.2c0-0.1-0.2-0.3-0.2-0.3S24.6,14.8,24.6,14.8z"/>
	<path class="st0" d="M24.6,18.4c0,0.1,0.1,0.2,0.2,0.2c0.1,0,0.2-0.1,0.2-0.2c0,0-0.2-0.3-0.2-0.3S24.6,18.3,24.6,18.4z"/>
	<path class="st0" d="M25,21.1c0,0.1,0.1,0.2,0.2,0.2c0.1,0,0.2-0.1,0.2-0.2c0,0-0.2-0.3-0.2-0.3S25,21.1,25,21.1z"/>
	<path class="st0" d="M27.3,22.6c0,0.1,0.1,0.2,0.2,0.2c0.1,0,0.2-0.1,0.2-0.2c0-0.1-0.2-0.3-0.2-0.3S27.3,22.6,27.3,22.6z"/>
	<path class="st0" d="M35.3,14.8c0,0.1,0.1,0.2,0.2,0.2c0.1,0,0.2-0.1,0.2-0.2c0,0-0.2-0.3-0.2-0.3S35.3,14.8,35.3,14.8z"/>
	<path class="st0" d="M35.3,18.4c0,0.1,0.1,0.2,0.2,0.2c0.1,0,0.2-0.1,0.2-0.2c0,0-0.2-0.3-0.2-0.3S35.3,18.3,35.3,18.4z"/>
	<path class="st0" d="M34.9,21.1c0,0.1,0.1,0.2,0.2,0.2c0.1,0,0.2-0.1,0.2-0.2c0,0-0.2-0.3-0.2-0.3S34.9,21.1,34.9,21.1z"/>
	<path class="st0" d="M32.7,22.6c0,0.1,0.1,0.2,0.2,0.2c0.1,0,0.2-0.1,0.2-0.2c0,0-0.2-0.3-0.2-0.3S32.7,22.6,32.7,22.6z"/>
	<path class="st0" d="M30,24.2c0,0.1,0.1,0.2,0.2,0.2c0.1,0,0.2-0.1,0.2-0.2c0,0-0.2-0.3-0.2-0.3S30,24.1,30,24.2z"/>
	<path class="st0" d="M32.6,19.7c-0.2,0.3-0.2,0.7-0.5,0.9C32,20.7,32,20.8,32,20.9l0.1,0.1c0.2-0.1,0.6-0.2,0.6-0.5
		c0.1-0.1,0.2-0.3,0.3-0.4c0.2,0,0.3,0.1,0.4,0.2c-0.1,0.3-0.2,0.4-0.4,0.5c0,0,0,0.1,0,0.1c0.1,0.1,0.2,0.1,0.3,0.1
		c0.3-0.2,0.4-0.5,0.6-0.6c0,0.2-0.3,0.2-0.1,0.4c0.1,0,0.4,0,0.4-0.2c-0.1-0.3,0.4-0.4,0.1-0.7c0-0.2,0.3-0.3,0.2-0.6
		c-0.1-0.3-0.4-0.3-0.5-0.5c0.1-0.1,0.2-0.1,0.3,0c0,0.1,0.1,0.1,0.2,0l0.1-0.3c0,0-0.1-0.1-0.2-0.1c-0.3,0.1-0.6,0.1-0.7,0.4
		c0,0.2,0.1,0.4,0.3,0.4c0.1,0,0.1,0.1,0.2,0.1c0,0.1,0,0.2-0.1,0.2c-0.2-0.2-0.5,0.1-0.7-0.2c0.1-0.3,0.2-0.5,0-0.8
		c0-0.1,0.1-0.1,0.1-0.2c-0.1-0.2-0.3-0.1-0.5-0.1c-0.2,0-0.4,0.1-0.6,0.3c0,0.1,0,0.2,0.1,0.2c0.1,0,0.1,0,0.1,0.1l-0.2,0.1
		c0.1,0.1,0.1,0.1,0.1,0.2c-0.1,0.1-0.2-0.1-0.3-0.2c0-0.1,0-0.4-0.2-0.4c0,0-0.1,0-0.1,0c0,0.1-0.1,0.2-0.1,0.3
		c0,0.1,0.1,0.3,0.1,0.3S32.5,19.5,32.6,19.7z"/>
	<path class="st0" d="M22.3,21.1c-0.2,0-0.3,0.1-0.3,0.3c0,0.2,0.1,0.3,0.3,0.3c0.2,0,0.3-0.1,0.3-0.3
		C22.6,21.2,22.5,21.1,22.3,21.1z"/>
	<path class="st0" d="M4.8,31.4c0,0.2,0.1,0.3,0.3,0.3c0.2,0,0.3-0.1,0.3-0.3c0-0.2-0.1-0.3-0.3-0.3C5,31.1,4.8,31.2,4.8,31.4z"/>
	<path class="st0" d="M22.1,36.3l-1-1.5l-0.1,0l-0.6,1.7c-0.1,0.2-0.1,0.3-0.3,0.4l0,0.1l0.7-0.1l0-0.1c-0.1,0-0.3,0-0.3-0.1
		c0,0,0-0.2,0.1-0.4l0.8-0.1c0.1,0.1,0.2,0.3,0.2,0.4c0,0.1-0.1,0.1-0.3,0.1l0,0.1l1.2-0.1l0-0.1C22.4,36.7,22.3,36.6,22.1,36.3z
		 M20.7,36.3l0.3-0.8l0.4,0.7L20.7,36.3z"/>
	<path class="st0" d="M41.6,31.3c-0.6-0.1-1.2,0-1.5,0.4c-0.6,0.5-0.2,1.4-0.2,2c0,0.1,0,0.2-0.1,0.3c-2.5-0.2-4.9-0.9-7.4-1.1
		c-0.6-0.1-1.2-0.1-1.7-0.2l-0.7-0.1c-2.2,0.1-4.4,0.2-6.4,0.7c-0.4,0.1-0.9,0.2-1.4,0.3c-0.3-0.1-0.6,0.2-0.9,0.1L20.7,34
		c-0.1,0-0.1,0-0.2,0c-0.3-0.7,0.6-1.2,0.3-1.9c-0.2-0.4-0.7-0.8-1.2-0.7c-0.6-0.1-1.1,0.3-1.4,0.7c-0.4,0.9,0.1,1.8,0.3,2.7
		c0,0.3,0.3,0.6,0,0.8c-0.6-0.4-1.3-0.6-2-0.4c-0.2,0.1-0.6,0-0.7,0.2c0.8,0.4,1.7,0.4,2.6,0.3c0.1,0,0.2-0.1,0.3,0
		c0.1,0.5-0.1,1.1,0.2,1.5c0.3,0.4,0.8,0.5,1.3,0.6c1.6-0.1,3-0.5,4.5-0.9c0.2,0,0.4-0.1,0.6-0.1c0.8-0.2,1.6-0.3,2.5-0.3
		c-0.4,0.5-0.6,1-0.7,1.6c-0.2,0.5,0.4,0.5,0.5,0.8c-0.5,0.2-0.9,0.5-1.4,0.7c-1.1,0-2.1,0.4-3.1,0.5c0,0.2,0.4,0.2,0.4,0.4
		c-0.1,0.2-0.2,0.2-0.3,0.3c0,0.1,0,0.1,0.1,0.1c0.1-0.1,0.3,0,0.4-0.2c0.3,0,0.6-0.1,1-0.1c0.3-0.1,0.6-0.1,0.9-0.4
		c0.4-0.1,0.6-0.4,1-0.5c0.5,0,1-0.2,1.5-0.2v0.1c-0.4,0.7-0.8,1.3-1.2,1.9c-0.1,0.1,0,0.2,0.1,0.3c0.2,0.1,0.5,0,0.7-0.1
		c0.4-0.6,0.7-1.2,1-1.9c0.1-0.6,0.6-0.9,1-1.3c0.1,0,0.2-0.1,0.2,0c-0.4,0.4-0.6,0.8-0.8,1.2c-0.1,0.5-0.2,1.1,0.3,1.5
		c0.2,0.2,0.5,0.1,0.8,0.1c0.7-0.4,1.6,0.2,2.1-0.5c0.3-0.1,0.4,0.3,0.5,0.5c0.3,0.1,0.6,0.4,0.9,0.2c0-0.2-0.2-0.4-0.3-0.5
		c-0.2-0.4-0.5-0.7-0.7-1c-0.1-0.2-0.2-0.4-0.3-0.7c0.3,0.1,0.6,0.3,0.9,0.4c0.3,0.1,0.7,0.1,0.9,0.3c0.2,0.3,0.6,0.5,0.9,0.7
		c0.4,0.2,0.9,0.2,1.4,0.4c0.2,0,0.4,0.2,0.6,0c-0.1-0.1-0.2-0.1-0.3-0.2c-0.1-0.2,0.3-0.1,0.4-0.3c0-0.1-0.1-0.1-0.2-0.1
		c-0.3-0.1-0.9-0.2-1-0.3c-0.2,0-0.4-0.1-0.6-0.2c-1.1,0-1.6-0.9-2.5-1.3c0.2-0.2,0.5-0.3,0.6-0.6c0.2-0.2,0.2-0.7,0.1-0.9
		c-0.2-0.5-0.9-0.5-1.3-0.8l0.1-0.1c0.7,0,1.3,0.1,1.9,0.2c1.7,0.2,3.2,0.9,5,0.9c1,0,2.2,0.1,2.6-0.9c0.1-0.5,0.2-1.1,0.3-1.6
		c0.2-0.9,0.8-1.7,0.7-2.7C42.5,31.9,42.1,31.5,41.6,31.3z M23.9,40.5l-0.2-0.2c0.1-0.2,0.4-0.1,0.6-0.2c0.5-0.1,1-0.3,1.5-0.2
		C25.2,40.3,24.5,40.3,23.9,40.5z M34.8,40.2c0.4,0.2,1.3,0.4,1.9,0.4c-0.1,0.2-0.5,0-0.4,0.4c-0.5-0.2-1.2-0.3-1.6-0.7
		C34.7,40.2,34.7,40.2,34.8,40.2z M18.4,32.7c0.1-0.3,0.1-0.7,0.4-0.9c0.4-0.2,1-0.2,1.4,0.1c0.1,0.1,0.2,0.2,0.3,0.3
		c0.1,0.3-0.1,0.6-0.3,0.8H20c0-0.3,0-0.6,0.1-0.8c0-0.2-0.2-0.2-0.3-0.3c-0.3-0.1-0.6,0.1-0.8,0.2c-0.2,0.2-0.3,0.5-0.2,0.8
		c0.1,0.2,0,0.5,0.1,0.7l-0.1,0.1C18.6,33.3,18.3,33.1,18.4,32.7z M20.1,33.3c0.1,0.2,0.1,0.4-0.1,0.6c-0.3-0.1-0.7,0-0.8-0.3
		c0-0.1-0.1-0.3,0-0.4C19.5,33.4,19.8,33.3,20.1,33.3z M19.1,32.6c0.1-0.1,0-0.4,0.2-0.4c0.1,0,0.3,0,0.3,0.1c0,0.2,0,0.4-0.1,0.6
		C19.3,32.9,19.2,32.8,19.1,32.6z M27.3,38.3c-0.1-0.6,0.2-1.1,0.6-1.6c0.2-0.1,0.5-0.1,0.8,0c-0.5,0.1-1,0.2-1.1,0.8
		c0,0.2-0.1,0.4,0.1,0.5c0.2,0.3,0.6,0.2,0.9,0.5c0,0.1-0.1,0.2-0.2,0.2C28,38.6,27.6,38.5,27.3,38.3z M26.7,39.5
		c0.4-0.2,0.9-0.5,1.3-0.4C27.7,39.3,27.2,39.4,26.7,39.5z M28.4,39.6c-0.2,0.6-0.5,1.1-0.9,1.7c0,0.1-0.2,0.1-0.3,0.1
		c0-0.2,0.2-0.4,0.3-0.7c0.4-0.5,0.5-1,0.9-1.4C28.6,39.4,28.4,39.5,28.4,39.6z M27.8,37.9c-0.2-0.2,0-0.4,0-0.6
		c0.2-0.4,0.9-0.6,1.3-0.2c-0.1,0.4-0.2,0.7-0.4,1C28.4,38.1,28.1,38,27.8,37.9z M28.8,38.6L28.8,38.6L28.8,38.6L28.8,38.6
		L28.8,38.6L28.8,38.6C28.8,38.6,28.8,38.6,28.8,38.6L28.8,38.6z M29,38.1c0.1-0.2,0.2-0.5,0.3-0.7C29.3,37.6,29.2,38,29,38.1z
		 M29.2,36.7c-0.2-0.1-0.3-0.3-0.6-0.3c0.2-0.1,0.4-0.1,0.7,0C29.4,36.5,29.2,36.6,29.2,36.7z M29.4,37.2L29.4,37.2l0-0.2h0V37.2z
		 M29.5,38.1c0-0.1,0-0.2,0.1-0.2c0.1-0.1,0.2,0.1,0.2,0.1C29.7,38,29.6,38.1,29.5,38.1z M29.7,37c0.1-0.2,0.1-0.5,0.3-0.7
		c0.2,0,0.3,0,0.5,0.1c0,0.4,0.5,0.8,0,1.1c-0.2,0.1-0.4,0.2-0.6,0.1C29.7,37.4,29.6,37.2,29.7,37z M31,36.5c0-0.2,0.2,0,0.2-0.1
		l0.5,0C31.5,36.4,31.1,37,31,36.5z M31.9,36.7c-0.2,0.1-0.4,0.3-0.6,0.4C31.4,36.9,31.7,36.7,31.9,36.7z M31.1,37.8L31.1,37.8
		L31.1,37.8L31.1,37.8L31.1,37.8z M31.2,38.9c0,0,0,0.1,0,0.1l-0.4-0.3C30.9,38.6,31.1,38.7,31.2,38.9z M30.7,38.3c0,0,0.1,0,0.2,0
		H30.7z M30.5,38.1c0.1-0.1,0.2-0.3,0.3-0.3c0,0,0,0,0,0.1C30.7,37.9,30.6,38,30.5,38.1z M30.1,38L30.1,38l0-0.1
		C30.1,38,30.1,38,30.1,38z M30.1,38.7c0.2-0.2,0.4,0.1,0.5,0.3c0.3,0.4,0.9,0.7,0.7,1.3c-0.3,0.3-0.9,0-1.2,0.2
		c-0.2,0-0.5,0-0.6-0.2C29.7,39.8,29.8,39.2,30.1,38.7z M29.6,39l0.1-0.1c-0.1,0.4-0.4,0.9-0.6,1.3C29,39.7,29.5,39.4,29.6,39z
		 M30.4,41.1c-0.3,0-0.8,0.2-1.2-0.1c0-0.1-0.1-0.2-0.1-0.4c0.3-0.1,0.5,0.2,0.8,0c0.4,0,0.8-0.1,1.2,0c0.2,0.1,0.5-0.3,0.5,0.1
		C31.5,41.4,30.8,40.9,30.4,41.1z M31.4,38.6L31.4,38.6L31.4,38.6L31.4,38.6L31.4,38.6z M31.5,39.7c0,0.2,0.2,0.2,0.1,0.4
		C31.6,40,31.5,39.9,31.5,39.7z M32,40.8L32,40.8c-0.2,0-0.1-0.2-0.1-0.3C32,40.5,32.1,40.6,32,40.8z M32.9,41.2
		c0,0.1-0.1,0.1-0.1,0c-0.5-0.7-0.8-1.4-1.1-2.1l0.1,0C32.1,39.7,32.5,40.5,32.9,41.2z M33.5,39.6C33.5,39.6,33.5,39.6,33.5,39.6
		c-0.5,0.1-0.9-0.2-1.3-0.5l0-0.1C32.7,39,33.1,39.3,33.5,39.6z M33.1,37.2c0.2,0.1,0.2,0.3,0.2,0.5c0,0.4-0.2,0.7-0.6,0.9
		c-0.2,0.1-0.5,0.1-0.7,0.1c0.4,0,0.9-0.2,1-0.6L33.1,37.2z M32.7,37.1c0.1,0.2,0.2,0.5,0.2,0.8c-0.2,0.3-0.5,0.3-0.8,0.4
		c-0.2,0-0.3,0-0.4-0.1c0-0.1,0-0.1-0.1-0.2c0.1-0.2-0.4-0.5-0.1-0.7C31.7,37.1,32.4,36.5,32.7,37.1z M41.6,35.9
		c-0.1,0.2,0,0.5-0.2,0.6c0,0.3-0.3,0.5-0.5,0.6c-2.1,0.5-4.1-0.2-6.1-0.6c-2.8-0.6-6.1-0.8-9-0.1c-1.3,0.2-2.7,0.6-4,0.9
		c-0.8,0.1-1.7,0.2-2.4,0c-0.6-0.3-0.4-1.1-0.6-1.7c0-0.4-0.1-0.8-0.1-1.2c-0.1-0.1-0.1-0.3-0.1-0.5c0.3,0,0.5,0.2,0.8,0.3
		c1.5,0.3,2.8-0.2,4.1-0.4c1.3-0.3,2.7-0.5,4-0.6c1.6,0,3.2-0.1,4.7,0.2c0.5,0,0.9,0.1,1.4,0.2c1,0.1,1.9,0.4,2.9,0.5
		c0.2,0.1,0.4,0.1,0.5,0.1c1.6,0.2,3.3,0.7,4.8,0C41.9,34.7,41.7,35.2,41.6,35.9z M41.1,33.7c0,0.3-0.2,0.2-0.4,0.3h-0.4
		c-0.1-0.1-0.1-0.4-0.1-0.5C40.5,33.6,40.8,33.6,41.1,33.7z M40.9,33.3c0.2-0.2-0.1-1.3,0.5-0.6c0,0.1,0,0.4-0.1,0.5
		C41.2,33.2,41,33.4,40.9,33.3z M42.3,33.1c-0.2,0.3-0.4,0.5-0.7,0.6c0-0.4,0.4-0.7,0.3-1.2c-0.2-0.3-0.7-0.4-1.1-0.4
		c-0.2,0.1-0.1,0.3-0.1,0.4l-0.1,0.6c-0.3,0-0.4-0.3-0.5-0.6c0-0.4,0.2-0.7,0.5-0.9c0.3-0.1,0.7-0.1,1,0c0.2,0.1,0.5,0.2,0.6,0.4
		C42.4,32.3,42.4,32.8,42.3,33.1z"/>
	<rect x="63.8" y="26.2" class="st0" width="125.4" height="0.6"/>
	<path class="st0" d="M67.4,31.5c-1,0-1.9,0.3-2.6,1c-0.7,0.7-1.1,1.5-1.1,2.6c0,0.9,0.3,1.7,0.8,2.4c0.7,0.8,1.7,1.3,2.9,1.3
		c1.2,0,2.2-0.4,2.9-1.3c0.5-0.7,0.8-1.4,0.8-2.3c0-1-0.3-1.9-1-2.6C69.4,31.8,68.5,31.5,67.4,31.5z M69,37.1
		c-0.2,0.5-0.4,0.8-0.7,1c-0.2,0.2-0.5,0.3-0.9,0.3c-0.5,0-0.9-0.2-1.2-0.6c-0.4-0.6-0.6-1.4-0.6-2.6c0-1,0.1-1.8,0.4-2.3
		c0.3-0.7,0.8-1,1.5-1c0.3,0,0.7,0.1,0.9,0.3c0.3,0.2,0.5,0.5,0.7,1c0.2,0.5,0.3,1.1,0.3,2.1C69.3,36,69.2,36.6,69,37.1z"/>
	<path class="st0" d="M74.3,32.4c0,0.1,0.1,0.2,0.2,0.3c0.1,0.1,0.2,0.1,0.4,0.1c0.2,0,0.4-0.1,0.5-0.2c0.1-0.1,0.2-0.2,0.2-0.4
		c0-0.2-0.1-0.4-0.3-0.5c-0.2-0.2-0.5-0.2-0.9-0.2c-0.6,0-1.1,0.2-1.5,0.5c-0.4,0.3-0.5,0.7-0.5,1.2l0,0.2v0.4h-0.7v0.5h0.7v3.3
		c0,0.3,0,0.4-0.1,0.5c0,0.1-0.1,0.1-0.2,0.2c-0.1,0-0.2,0.1-0.5,0.1v0.2h2.8v-0.2c-0.3,0-0.5,0-0.6-0.2c-0.1-0.1-0.1-0.3-0.1-0.6
		v-3.3h0.7v-0.5h-0.7v-0.6l0-0.9c0-0.2,0-0.3,0.1-0.4c0.1-0.1,0.1-0.1,0.2-0.1c0.1,0,0.1,0,0.2,0.1c0,0,0.1,0.1,0.1,0.2
		c0,0.1,0,0.1,0,0.2C74.3,32.3,74.3,32.3,74.3,32.4z"/>
	<path class="st0" d="M77.7,32.4c0,0.1,0.1,0.2,0.2,0.3c0.1,0.1,0.2,0.1,0.4,0.1c0.2,0,0.4-0.1,0.5-0.2c0.1-0.1,0.2-0.2,0.2-0.4
		c0-0.2-0.1-0.4-0.3-0.5c-0.2-0.2-0.5-0.2-0.9-0.2c-0.6,0-1.1,0.2-1.5,0.5c-0.4,0.3-0.5,0.7-0.5,1.2l0,0.2v0.4H75v0.5h0.7v3.3
		c0,0.3,0,0.4-0.1,0.5c0,0.1-0.1,0.1-0.2,0.2c-0.1,0-0.2,0.1-0.5,0.1v0.2h2.8v-0.2c-0.3,0-0.5,0-0.6-0.2c-0.1-0.1-0.1-0.3-0.1-0.6
		v-3.3h0.7v-0.5h-0.7v-0.6l0-0.9c0-0.2,0-0.3,0.1-0.4c0.1-0.1,0.1-0.1,0.2-0.1c0.1,0,0.1,0,0.2,0.1c0,0,0.1,0.1,0.1,0.2
		c0,0.1,0,0.1,0,0.2C77.7,32.3,77.7,32.3,77.7,32.4z"/>
	<path class="st0" d="M79.3,31.7c-0.2,0.2-0.2,0.3-0.2,0.6c0,0.2,0.1,0.4,0.2,0.6c0.2,0.2,0.3,0.2,0.6,0.2c0.2,0,0.4-0.1,0.6-0.2
		c0.2-0.2,0.2-0.3,0.2-0.6c0-0.2-0.1-0.4-0.2-0.6c-0.2-0.2-0.3-0.2-0.6-0.2C79.6,31.5,79.4,31.6,79.3,31.7z"/>
	<path class="st0" d="M80.5,37.6v-3.8h-2V34c0.2,0,0.4,0.1,0.5,0.2c0.1,0.1,0.1,0.3,0.1,0.6v2.8c0,0.3,0,0.5-0.1,0.6
		c-0.1,0.1-0.3,0.2-0.5,0.2v0.2h2.6v-0.2c-0.2,0-0.4-0.1-0.5-0.2C80.6,38.2,80.5,37.9,80.5,37.6z"/>
	<path class="st0" d="M84.6,37.8c-0.2,0.1-0.3,0.1-0.5,0.1c-0.3,0-0.5-0.1-0.7-0.2c-0.2-0.2-0.4-0.5-0.6-0.9
		c-0.1-0.4-0.2-0.8-0.2-1.3c0-0.5,0.1-0.9,0.3-1.2c0.1-0.2,0.3-0.3,0.4-0.3c0.1,0,0.2,0,0.3,0.1c0.1,0.1,0.1,0.2,0.1,0.5
		c0,0.3,0.1,0.6,0.2,0.7c0.1,0.1,0.3,0.2,0.5,0.2c0.2,0,0.3-0.1,0.5-0.2c0.1-0.1,0.2-0.3,0.2-0.5c0-0.3-0.1-0.6-0.4-0.8
		c-0.3-0.2-0.7-0.4-1.2-0.4c-0.7,0-1.3,0.3-1.7,0.9c-0.3,0.5-0.5,1.1-0.5,1.7c0,0.7,0.2,1.3,0.6,1.7c0.4,0.5,0.9,0.7,1.5,0.7
		c0.4,0,0.7-0.1,1.1-0.3c0.3-0.2,0.6-0.5,0.8-0.9l-0.2-0.1C85,37.6,84.8,37.7,84.6,37.8z"/>
	<path class="st0" d="M89.1,34.3c-0.4-0.4-0.8-0.6-1.3-0.6c-0.6,0-1.1,0.2-1.5,0.7c-0.4,0.5-0.6,1.1-0.6,1.9c0,0.7,0.1,1.2,0.4,1.6
		c0.4,0.5,0.9,0.8,1.6,0.8c0.4,0,0.8-0.1,1.1-0.3c0.3-0.2,0.6-0.6,0.9-1.1l-0.2-0.1c-0.2,0.3-0.4,0.5-0.5,0.6
		c-0.2,0.1-0.4,0.2-0.6,0.2c-0.3,0-0.6-0.1-0.9-0.4c-0.3-0.4-0.5-0.9-0.5-1.5h2.6C89.7,35.2,89.5,34.7,89.1,34.3z M87,35.7v-0.2
		c0-0.5,0.1-0.9,0.3-1.3c0.1-0.2,0.3-0.3,0.4-0.3c0.1,0,0.2,0,0.3,0.1c0.1,0.1,0.2,0.3,0.3,0.5c0.1,0.2,0.1,0.6,0.1,1.1H87z"/>
	<path class="st0" d="M95.8,34c-0.4-0.2-0.7-0.3-1.2-0.3c-0.7,0-1.2,0.3-1.6,0.8c-0.4,0.5-0.6,1.1-0.6,1.8c0,0.7,0.2,1.3,0.6,1.8
		c0.4,0.5,0.9,0.8,1.7,0.8c0.7,0,1.3-0.3,1.7-0.8c0.3-0.5,0.5-1,0.5-1.7c0-0.5-0.1-0.9-0.3-1.3C96.4,34.5,96.2,34.2,95.8,34z
		 M95.3,37.8c0,0.2-0.1,0.4-0.3,0.5c-0.1,0.1-0.2,0.1-0.4,0.1c-0.2,0-0.3-0.1-0.4-0.2c-0.1-0.1-0.2-0.3-0.2-0.6c0-0.3-0.1-0.7-0.1-1
		c0-0.7,0-1.2,0.1-1.6c0-0.4,0.1-0.6,0.2-0.8c0.1-0.1,0.3-0.2,0.4-0.2c0.1,0,0.3,0,0.3,0.1c0.1,0.1,0.2,0.3,0.3,0.5
		c0.1,0.2,0.1,0.6,0.1,1.2C95.4,36.8,95.4,37.4,95.3,37.8z"/>
	<path class="st0" d="M99.9,31.5c-0.6,0-1.1,0.2-1.5,0.5c-0.4,0.3-0.5,0.7-0.5,1.2l0,0.2v0.4h-0.7v0.5h0.7v3.3c0,0.3,0,0.4-0.1,0.5
		c0,0.1-0.1,0.1-0.2,0.2c-0.1,0-0.2,0.1-0.5,0.1v0.2h2.8v-0.2c-0.3,0-0.5,0-0.6-0.2c-0.1-0.1-0.1-0.3-0.1-0.6v-3.3h0.7v-0.5h-0.7
		v-0.6l0-0.9c0-0.2,0-0.3,0.1-0.4c0.1-0.1,0.1-0.1,0.2-0.1c0.1,0,0.1,0,0.2,0.1c0,0,0.1,0.1,0.1,0.2c0,0.1,0,0.1,0,0.2
		c0,0.1,0,0.2,0,0.2c0,0.1,0.1,0.2,0.2,0.3c0.1,0.1,0.2,0.1,0.4,0.1c0.2,0,0.4-0.1,0.5-0.2c0.1-0.1,0.2-0.2,0.2-0.4
		c0-0.2-0.1-0.4-0.3-0.5C100.6,31.6,100.3,31.5,99.9,31.5z"/>
	<path class="st0" d="M107.5,31.8c0.4,0,0.7,0.1,0.8,0.3c0.1,0.1,0.2,0.4,0.2,0.8v3l-3.4-4.3h-2.5v0.2c0.2,0,0.4,0,0.5,0.1
		c0.1,0.1,0.2,0.2,0.4,0.4l0.1,0.2v4.9c0,0.4-0.1,0.6-0.2,0.8c-0.2,0.2-0.4,0.2-0.8,0.2v0.2h2.5v-0.2h-0.2c-0.2,0-0.4-0.1-0.6-0.2
		c-0.2-0.1-0.3-0.4-0.3-0.8V33l4.7,5.8h0.2V33c0-0.3,0-0.6,0.1-0.7c0.1-0.1,0.1-0.2,0.2-0.3s0.3-0.1,0.6-0.1v-0.2h-2.3V31.8z"/>
	<path class="st0" d="M114.1,38c0,0-0.1,0-0.1,0c0,0-0.1-0.1-0.1-0.1c0-0.1,0-0.2,0-0.4v-1.9c0-0.5,0-0.8-0.1-1
		c-0.1-0.2-0.3-0.4-0.5-0.6c-0.3-0.2-0.6-0.3-1.1-0.3c-0.4,0-0.7,0.1-1.1,0.2c-0.3,0.1-0.6,0.3-0.8,0.5c-0.2,0.2-0.3,0.5-0.3,0.7
		c0,0.2,0.1,0.3,0.2,0.5c0.1,0.1,0.3,0.2,0.5,0.2c0.2,0,0.4-0.1,0.5-0.2c0.1-0.1,0.2-0.3,0.2-0.4c0-0.1-0.1-0.3-0.2-0.4
		c-0.1-0.1-0.1-0.2-0.1-0.3c0-0.1,0-0.2,0.1-0.2c0.1-0.1,0.3-0.1,0.5-0.1c0.1,0,0.3,0,0.4,0.1c0.1,0.1,0.2,0.2,0.2,0.2
		c0,0.1,0.1,0.3,0.1,0.7v0.5c-1.1,0.5-1.7,0.9-2.1,1.2s-0.5,0.6-0.5,1c0,0.3,0.1,0.5,0.3,0.7c0.2,0.2,0.4,0.3,0.7,0.3
		c0.5,0,1-0.3,1.6-0.8c0,0.3,0.1,0.5,0.3,0.6c0.2,0.1,0.4,0.2,0.6,0.2c0.2,0,0.4-0.1,0.6-0.2c0.2-0.1,0.4-0.3,0.5-0.6l-0.2-0.1
		C114.3,37.9,114.2,38,114.1,38z M112.5,37.5c-0.2,0.2-0.4,0.3-0.6,0.3c-0.2,0-0.3,0-0.4-0.1c-0.1-0.1-0.2-0.3-0.2-0.4
		c0-0.2,0.1-0.4,0.2-0.6c0.2-0.3,0.5-0.5,0.9-0.8V37.5z"/>
	<path class="st0" d="M116.6,32h-0.2c-0.2,0.4-0.5,0.8-0.8,1.1c-0.3,0.3-0.7,0.7-1.1,1v0.2h0.6v2.6c0,0.5,0,0.8,0.1,0.9
		c0.1,0.2,0.2,0.4,0.4,0.6c0.2,0.2,0.5,0.3,0.8,0.3c0.6,0,1.1-0.3,1.3-1l-0.2-0.1c-0.2,0.3-0.4,0.5-0.6,0.5c-0.1,0-0.1,0-0.2-0.1
		c-0.1,0-0.1-0.1-0.1-0.2c0-0.1,0-0.3,0-0.5v-3h1.1v-0.5h-1.1V32z"/>
	<path class="st0" d="M120,37.6v-3.8h-2V34c0.2,0,0.4,0.1,0.5,0.2c0.1,0.1,0.1,0.3,0.1,0.6v2.8c0,0.3,0,0.5-0.1,0.6
		c-0.1,0.1-0.3,0.2-0.5,0.2v0.2h2.6v-0.2c-0.2,0-0.4-0.1-0.5-0.2C120,38.2,120,37.9,120,37.6z"/>
	<path class="st0" d="M118.7,31.7c-0.2,0.2-0.2,0.3-0.2,0.6c0,0.2,0.1,0.4,0.2,0.6c0.2,0.2,0.3,0.2,0.6,0.2c0.2,0,0.4-0.1,0.6-0.2
		c0.2-0.2,0.2-0.3,0.2-0.6c0-0.2-0.1-0.4-0.2-0.6c-0.2-0.2-0.3-0.2-0.6-0.2C119.1,31.5,118.9,31.6,118.7,31.7z"/>
	<path class="st0" d="M124.1,34c-0.4-0.2-0.7-0.3-1.2-0.3c-0.7,0-1.2,0.3-1.6,0.8c-0.4,0.5-0.6,1.1-0.6,1.8c0,0.7,0.2,1.3,0.6,1.8
		c0.4,0.5,0.9,0.8,1.7,0.8c0.7,0,1.3-0.3,1.7-0.8c0.3-0.5,0.5-1,0.5-1.7c0-0.5-0.1-0.9-0.3-1.3C124.8,34.5,124.5,34.2,124.1,34z
		 M123.6,37.8c0,0.2-0.1,0.4-0.3,0.5c-0.1,0.1-0.2,0.1-0.4,0.1c-0.2,0-0.3-0.1-0.4-0.2c-0.1-0.1-0.2-0.3-0.2-0.6
		c0-0.3-0.1-0.7-0.1-1c0-0.7,0-1.2,0.1-1.6c0-0.4,0.1-0.6,0.2-0.8c0.1-0.1,0.3-0.2,0.4-0.2c0.1,0,0.3,0,0.3,0.1
		c0.1,0.1,0.2,0.3,0.3,0.5c0.1,0.2,0.1,0.6,0.1,1.2C123.7,36.8,123.7,37.4,123.6,37.8z"/>
	<path class="st0" d="M130.2,37.5v-1.9c0-0.6,0-0.9-0.1-1.1c-0.1-0.3-0.2-0.5-0.4-0.6c-0.2-0.2-0.5-0.3-0.8-0.3
		c-0.3,0-0.5,0.1-0.7,0.2c-0.2,0.1-0.5,0.3-0.7,0.6v-0.6h-2V34c0.2,0,0.4,0.1,0.4,0.2c0.1,0.1,0.1,0.3,0.1,0.7v2.7
		c0,0.4,0,0.6-0.1,0.7c-0.1,0.1-0.2,0.2-0.4,0.2v0.2h2.4v-0.2c-0.2,0-0.3-0.1-0.4-0.2c-0.1-0.1-0.1-0.3-0.1-0.7V35
		c0.3-0.4,0.5-0.6,0.8-0.6c0.1,0,0.2,0,0.2,0.1c0.1,0.1,0.1,0.1,0.2,0.2s0,0.4,0,0.7v2.1c0,0.3,0,0.6-0.1,0.6
		c-0.1,0.1-0.2,0.2-0.4,0.2v0.2h2.4v-0.2c-0.2,0-0.4-0.1-0.4-0.2C130.3,38.1,130.2,37.9,130.2,37.5z"/>
	<path class="st0" d="M135.4,38c0,0-0.1,0-0.1,0c0,0-0.1-0.1-0.1-0.1c0-0.1,0-0.2,0-0.4v-1.9c0-0.5,0-0.8-0.1-1
		c-0.1-0.2-0.3-0.4-0.5-0.6c-0.3-0.2-0.6-0.3-1.1-0.3c-0.4,0-0.7,0.1-1.1,0.2c-0.3,0.1-0.6,0.3-0.8,0.5c-0.2,0.2-0.3,0.5-0.3,0.7
		c0,0.2,0.1,0.3,0.2,0.5c0.1,0.1,0.3,0.2,0.5,0.2c0.2,0,0.4-0.1,0.5-0.2c0.1-0.1,0.2-0.3,0.2-0.4c0-0.1-0.1-0.3-0.2-0.4
		c-0.1-0.1-0.1-0.2-0.1-0.3c0-0.1,0-0.2,0.1-0.2c0.1-0.1,0.3-0.1,0.5-0.1c0.1,0,0.3,0,0.4,0.1c0.1,0.1,0.2,0.2,0.2,0.2
		c0,0.1,0.1,0.3,0.1,0.7v0.5c-1.1,0.5-1.7,0.9-2.1,1.2s-0.5,0.6-0.5,1c0,0.3,0.1,0.5,0.3,0.7c0.2,0.2,0.4,0.3,0.7,0.3
		c0.5,0,1-0.3,1.6-0.8c0,0.3,0.1,0.5,0.3,0.6c0.2,0.1,0.4,0.2,0.6,0.2c0.2,0,0.4-0.1,0.6-0.2c0.2-0.1,0.4-0.3,0.5-0.6l-0.2-0.1
		C135.5,37.9,135.4,38,135.4,38z M133.7,37.5c-0.2,0.2-0.4,0.3-0.6,0.3c-0.2,0-0.3,0-0.4-0.1c-0.1-0.1-0.2-0.3-0.2-0.4
		c0-0.2,0.1-0.4,0.2-0.6c0.2-0.3,0.5-0.5,0.9-0.8V37.5z"/>
	<path class="st0" d="M138,37.6v-6h-2v0.2c0.2,0,0.4,0.1,0.5,0.2c0.1,0.1,0.1,0.3,0.1,0.6v5c0,0.3,0,0.5-0.1,0.6
		c-0.1,0.1-0.3,0.2-0.5,0.2v0.2h2.6v-0.2c-0.2,0-0.4-0.1-0.5-0.2C138,38.2,138,37.9,138,37.6z"/>
	<path class="st0" d="M141,31.8h0.2c0.2,0,0.3,0,0.5,0.1c0.1,0.1,0.2,0.1,0.2,0.2c0,0.1,0.1,0.3,0.1,0.7v4.6c0,0.3,0,0.6-0.1,0.6
		c0,0.1-0.1,0.2-0.2,0.2c-0.1,0.1-0.3,0.1-0.5,0.1H141v0.2h3.6v-0.2h-0.2c-0.2,0-0.3,0-0.5-0.1c-0.1-0.1-0.2-0.1-0.2-0.2
		c0-0.1-0.1-0.3-0.1-0.7v-4.6c0-0.3,0-0.6,0.1-0.6c0.1-0.1,0.1-0.2,0.2-0.2c0.1-0.1,0.3-0.1,0.5-0.1h0.2v-0.2H141V31.8z"/>
	<path class="st0" d="M149.7,37.5v-1.9c0-0.6,0-0.9-0.1-1.1c-0.1-0.3-0.2-0.5-0.4-0.6c-0.2-0.2-0.5-0.3-0.8-0.3
		c-0.3,0-0.5,0.1-0.7,0.2c-0.2,0.1-0.5,0.3-0.7,0.6v-0.6h-2V34c0.2,0,0.4,0.1,0.4,0.2c0.1,0.1,0.1,0.3,0.1,0.7v2.7
		c0,0.4,0,0.6-0.1,0.7c-0.1,0.1-0.2,0.2-0.4,0.2v0.2h2.4v-0.2c-0.2,0-0.3-0.1-0.4-0.2c-0.1-0.1-0.1-0.3-0.1-0.7V35
		c0.3-0.4,0.5-0.6,0.8-0.6c0.1,0,0.2,0,0.2,0.1c0.1,0.1,0.1,0.1,0.2,0.2s0,0.4,0,0.7v2.1c0,0.3,0,0.6-0.1,0.6
		c-0.1,0.1-0.2,0.2-0.4,0.2v0.2h2.4v-0.2c-0.2,0-0.4-0.1-0.4-0.2C149.7,38.1,149.7,37.9,149.7,37.5z"/>
	<path class="st0" d="M152.3,32h-0.2c-0.2,0.4-0.5,0.8-0.8,1.1c-0.3,0.3-0.7,0.7-1.1,1v0.2h0.6v2.6c0,0.5,0,0.8,0.1,0.9
		c0.1,0.2,0.2,0.4,0.4,0.6c0.2,0.2,0.5,0.3,0.8,0.3c0.6,0,1.1-0.3,1.3-1l-0.2-0.1c-0.2,0.3-0.4,0.5-0.6,0.5c-0.1,0-0.1,0-0.2-0.1
		c-0.1,0-0.1-0.1-0.1-0.2c0-0.1,0-0.3,0-0.5v-3h1.1v-0.5h-1.1V32z"/>
	<path class="st0" d="M157.1,34.3c-0.4-0.4-0.8-0.6-1.3-0.6c-0.6,0-1.1,0.2-1.5,0.7c-0.4,0.5-0.6,1.1-0.6,1.9c0,0.7,0.1,1.2,0.4,1.6
		c0.4,0.5,0.9,0.8,1.6,0.8c0.4,0,0.8-0.1,1.1-0.3c0.3-0.2,0.6-0.6,0.9-1.1l-0.2-0.1c-0.2,0.3-0.4,0.5-0.5,0.6
		c-0.2,0.1-0.4,0.2-0.6,0.2c-0.3,0-0.6-0.1-0.9-0.4c-0.3-0.4-0.5-0.9-0.5-1.5h2.6C157.7,35.2,157.5,34.7,157.1,34.3z M155,35.7v-0.2
		c0-0.5,0.1-0.9,0.3-1.3c0.1-0.2,0.3-0.3,0.4-0.3c0.1,0,0.2,0,0.3,0.1c0.1,0.1,0.2,0.3,0.3,0.5c0.1,0.2,0.1,0.6,0.1,1.1H155z"/>
	<path class="st0" d="M159.9,37.6v-6h-2v0.2c0.2,0,0.4,0.1,0.5,0.2c0.1,0.1,0.1,0.3,0.1,0.6v5c0,0.3,0,0.5-0.1,0.6
		c-0.1,0.1-0.3,0.2-0.5,0.2v0.2h2.6v-0.2c-0.2,0-0.4-0.1-0.5-0.2C159.9,38.2,159.9,37.9,159.9,37.6z"/>
	<path class="st0" d="M162.7,37.6v-6h-2v0.2c0.2,0,0.4,0.1,0.5,0.2c0.1,0.1,0.1,0.3,0.1,0.6v5c0,0.3,0,0.5-0.1,0.6
		c-0.1,0.1-0.3,0.2-0.5,0.2v0.2h2.6v-0.2c-0.2,0-0.4-0.1-0.5-0.2C162.8,38.2,162.7,37.9,162.7,37.6z"/>
	<path class="st0" d="M165.6,37.6v-3.8h-2V34c0.2,0,0.4,0.1,0.5,0.2c0.1,0.1,0.1,0.3,0.1,0.6v2.8c0,0.3,0,0.5-0.1,0.6
		c-0.1,0.1-0.3,0.2-0.5,0.2v0.2h2.6v-0.2c-0.2,0-0.4-0.1-0.5-0.2C165.6,38.2,165.6,37.9,165.6,37.6z"/>
	<path class="st0" d="M164.3,31.7c-0.2,0.2-0.2,0.3-0.2,0.6c0,0.2,0.1,0.4,0.2,0.6c0.2,0.2,0.3,0.2,0.6,0.2c0.2,0,0.4-0.1,0.6-0.2
		c0.2-0.2,0.2-0.3,0.2-0.6c0-0.2-0.1-0.4-0.2-0.6c-0.2-0.2-0.3-0.2-0.6-0.2C164.6,31.5,164.5,31.6,164.3,31.7z"/>
	<path class="st0" d="M170.5,38.3c-0.3-0.2-0.8-0.2-1.5-0.2l-0.9,0c-0.2,0-0.4,0-0.5-0.1c-0.1-0.1-0.1-0.2-0.1-0.3
		c0-0.1,0.1-0.3,0.2-0.4c0.1-0.1,0.2-0.2,0.4-0.2c0.4,0,0.6,0,0.6,0c0.3,0,0.5-0.1,0.9-0.2c0.3-0.1,0.6-0.3,0.8-0.6
		c0.2-0.3,0.3-0.5,0.3-0.9c0-0.2,0-0.4-0.1-0.6c-0.1-0.1-0.2-0.3-0.3-0.5h0.9v-0.6h-1.6c-0.3-0.1-0.7-0.2-1-0.2
		c-0.6,0-1.1,0.2-1.5,0.5c-0.4,0.3-0.6,0.8-0.6,1.2c0,0.4,0.1,0.7,0.3,0.9c0.2,0.3,0.5,0.5,1,0.7c-0.4,0.2-0.7,0.4-0.9,0.6
		c-0.2,0.2-0.3,0.5-0.3,0.7c0,0.4,0.2,0.7,0.7,0.9c-0.3,0.1-0.5,0.2-0.7,0.3c-0.1,0.1-0.2,0.3-0.2,0.4c0,0.2,0.1,0.3,0.2,0.5
		c0.2,0.1,0.4,0.3,0.8,0.3c0.4,0.1,0.7,0.1,1.2,0.1c0.6,0,1.1-0.1,1.5-0.3c0.3-0.1,0.5-0.3,0.7-0.5c0.2-0.2,0.3-0.5,0.3-0.8
		C171.1,38.8,170.9,38.5,170.5,38.3z M168.1,34.3c0.1-0.2,0.3-0.3,0.5-0.3c0.2,0,0.4,0.1,0.5,0.2c0.2,0.2,0.2,0.6,0.2,1.3
		c0,0.5-0.1,0.9-0.2,1.1c-0.1,0.2-0.3,0.3-0.5,0.3c-0.2,0-0.3-0.1-0.5-0.3c-0.1-0.2-0.2-0.5-0.2-1C167.9,34.9,167.9,34.5,168.1,34.3
		z M169.9,40.3c-0.3,0.1-0.6,0.2-1.1,0.2c-0.6,0-0.9-0.1-1.1-0.2c-0.2-0.1-0.3-0.3-0.3-0.5c0-0.2,0.1-0.3,0.3-0.4
		c0.1-0.1,0.3-0.1,0.7-0.1c0.8,0,1.3,0,1.5,0.1c0.2,0,0.3,0.1,0.4,0.2c0.1,0.1,0.1,0.1,0.1,0.2C170.3,40,170.1,40.2,169.9,40.3z"/>
	<path class="st0" d="M174.7,34.3c-0.4-0.4-0.8-0.6-1.3-0.6c-0.6,0-1.1,0.2-1.5,0.7c-0.4,0.5-0.6,1.1-0.6,1.9c0,0.7,0.1,1.2,0.4,1.6
		c0.4,0.5,0.9,0.8,1.6,0.8c0.4,0,0.8-0.1,1.1-0.3c0.3-0.2,0.6-0.6,0.9-1.1l-0.2-0.1c-0.2,0.3-0.4,0.5-0.5,0.6
		c-0.2,0.1-0.4,0.2-0.6,0.2c-0.3,0-0.6-0.1-0.9-0.4c-0.3-0.4-0.5-0.9-0.5-1.5h2.6C175.3,35.2,175.1,34.7,174.7,34.3z M172.6,35.7
		v-0.2c0-0.5,0.1-0.9,0.3-1.3c0.1-0.2,0.3-0.3,0.4-0.3c0.1,0,0.2,0,0.3,0.1c0.1,0.1,0.2,0.3,0.3,0.5c0.1,0.2,0.1,0.6,0.1,1.1H172.6z
		"/>
	<path class="st0" d="M180.2,37.5v-1.9c0-0.6,0-0.9-0.1-1.1c-0.1-0.3-0.2-0.5-0.4-0.6c-0.2-0.2-0.5-0.3-0.8-0.3
		c-0.3,0-0.5,0.1-0.7,0.2c-0.2,0.1-0.5,0.3-0.7,0.6v-0.6h-2V34c0.2,0,0.4,0.1,0.4,0.2c0.1,0.1,0.1,0.3,0.1,0.7v2.7
		c0,0.4,0,0.6-0.1,0.7c-0.1,0.1-0.2,0.2-0.4,0.2v0.2h2.4v-0.2c-0.2,0-0.3-0.1-0.4-0.2c-0.1-0.1-0.1-0.3-0.1-0.7V35
		c0.3-0.4,0.5-0.6,0.8-0.6c0.1,0,0.2,0,0.2,0.1c0.1,0.1,0.1,0.1,0.2,0.2c0,0.1,0,0.4,0,0.7v2.1c0,0.3,0,0.6-0.1,0.6
		c-0.1,0.1-0.2,0.2-0.4,0.2v0.2h2.4v-0.2c-0.2,0-0.4-0.1-0.4-0.2C180.3,38.1,180.2,37.9,180.2,37.5z"/>
	<path class="st0" d="M184.3,37.8c-0.2,0.1-0.3,0.1-0.5,0.1c-0.3,0-0.5-0.1-0.7-0.2c-0.2-0.2-0.4-0.5-0.6-0.9
		c-0.1-0.4-0.2-0.8-0.2-1.3c0-0.5,0.1-0.9,0.3-1.2c0.1-0.2,0.3-0.3,0.4-0.3c0.1,0,0.2,0,0.3,0.1c0.1,0.1,0.1,0.2,0.1,0.5
		c0,0.3,0.1,0.6,0.2,0.7c0.1,0.1,0.3,0.2,0.5,0.2c0.2,0,0.3-0.1,0.5-0.2c0.1-0.1,0.2-0.3,0.2-0.5c0-0.3-0.1-0.6-0.4-0.8
		c-0.3-0.2-0.7-0.4-1.2-0.4c-0.7,0-1.3,0.3-1.7,0.9c-0.3,0.5-0.5,1.1-0.5,1.7c0,0.7,0.2,1.3,0.6,1.7s0.9,0.7,1.5,0.7
		c0.4,0,0.7-0.1,1.1-0.3c0.3-0.2,0.6-0.5,0.8-0.9l-0.2-0.1C184.7,37.6,184.5,37.7,184.3,37.8z"/>
	<path class="st0" d="M188.8,34.3c-0.4-0.4-0.8-0.6-1.3-0.6c-0.6,0-1.1,0.2-1.5,0.7c-0.4,0.5-0.6,1.1-0.6,1.9c0,0.7,0.1,1.2,0.4,1.6
		c0.4,0.5,0.9,0.8,1.6,0.8c0.4,0,0.8-0.1,1.1-0.3c0.3-0.2,0.6-0.6,0.9-1.1l-0.2-0.1c-0.2,0.3-0.4,0.5-0.5,0.6
		c-0.2,0.1-0.4,0.2-0.6,0.2c-0.3,0-0.6-0.1-0.9-0.4c-0.3-0.4-0.5-0.9-0.5-1.5h2.6C189.4,35.2,189.2,34.7,188.8,34.3z M186.7,35.7
		v-0.2c0-0.5,0.1-0.9,0.3-1.3c0.1-0.2,0.3-0.3,0.4-0.3c0.1,0,0.2,0,0.3,0.1c0.1,0.1,0.2,0.3,0.3,0.5c0.1,0.2,0.1,0.6,0.1,1.1H186.7z
		"/>
	<rect x="213.9" y="9.1" class="st0" width="0.3" height="29.5"/>
	<path class="st0" d="M327.8,18.2v14.9c0,3,2.5,5.5,5.5,5.5V21C331,21,329,19.9,327.8,18.2z"/>
	<path class="st0" d="M327.8,9.1v5.1c0,3,2.5,5.4,5.5,5.5v-5.1C333.3,11.6,330.8,9.1,327.8,9.1z"/>
	<path class="st0" d="M308.1,9.1h-14.2c-5.9,0-10.6,4.7-10.6,10.6v18.9h0c3,0,5.5-2.5,5.5-5.5V19.7c0-2.8,2.3-5.1,5.1-5.1h14.2
		c2.8,0,5.1,2.3,5.1,5.1v13.4c0,3,2.5,5.5,5.5,5.5V19.7C318.7,13.9,313.9,9.1,308.1,9.1z"/>
	<path class="st0" d="M263.5,9.1h-14.2c-5.9,0-10.6,4.7-10.6,10.6V28c0,5.9,4.7,10.6,10.6,10.6h14.2c5.9,0,10.6-4.7,10.6-10.6v-8.2
		C274.1,13.9,269.4,9.1,263.5,9.1z M268.6,27.9c0,2.8-2.3,5.1-5.1,5.1h-14.2c-2.8,0-5.1-2.3-5.1-5.1v-8.2c0-2.8,2.3-5.1,5.1-5.1
		h14.2c2.8,0,5.1,2.3,5.1,5.1V27.9z"/>
</g>
</svg>
